<svg width="84" height="96" viewBox="0 0 84 96" fill="none" xmlns="http://www.w3.org/2000/svg">
<g clip-path="url(#clip0_7059_9)">
<mask id="mask0_7059_9" style="mask-type:luminance" maskUnits="userSpaceOnUse" x="0" y="0" width="84" height="96">
<path d="M84 0H0V96H84V0Z" fill="white"/>
</mask>
<g mask="url(#mask0_7059_9)">
<mask id="mask1_7059_9" style="mask-type:luminance" maskUnits="userSpaceOnUse" x="0" y="0" width="84" height="96">
<path d="M84 0H0V96H84V0Z" fill="white"/>
</mask>
<g mask="url(#mask1_7059_9)">
<path d="M49.6316 41.916C48.5832 41.916 47.7968 41.7372 47.2728 41.3796C46.7484 41.0616 46.406 40.6248 46.2444 40.0688C46.0832 39.5125 46.0028 38.9166 46.0028 38.2811V3.84025C46.0028 3.20466 46.0632 2.62866 46.184 2.11225C46.3452 1.55611 46.688 1.11915 47.212 0.801352C47.7364 0.443836 48.5628 0.265076 49.692 0.265076L61.062 0.324665C64.0056 0.324665 66.7068 0.821216 69.1664 1.81432C71.6664 2.80742 73.8232 4.21765 75.6376 6.04493C77.452 7.87225 78.8432 10.0571 79.8108 12.5994C80.8188 15.102 81.3228 17.8629 81.3228 20.8819C81.3228 23.9804 80.8188 26.8206 79.8108 29.4027C78.8028 31.9848 77.3916 34.2094 75.5772 36.0764C73.7628 37.9434 71.606 39.3934 69.106 40.426C66.6464 41.4192 63.9048 41.916 60.8808 41.916H49.6316ZM53.3208 34.7059H61.062C63.6428 34.7059 65.9004 34.1498 67.836 33.0375C69.7712 31.8855 71.2632 30.2965 72.3116 28.2706C73.4 26.2446 73.9444 23.8811 73.9444 21.1798C73.9444 18.4389 73.4 16.0554 72.3116 14.0295C71.2632 11.9638 69.7512 10.3749 67.7756 9.26261C65.84 8.11061 63.582 7.53461 61.0016 7.53461H53.3208V34.7059ZM40.0464 94.226C39.3207 94.8216 38.6757 95.2188 38.1112 95.4176C37.587 95.6164 37.0629 95.5764 36.5387 95.2984C36.0549 95.0204 35.5105 94.5436 34.9057 93.8684L6.35919 59.1892C5.51247 58.236 5.08911 57.3816 5.08911 56.6268C5.08911 55.8724 5.61327 55.038 6.66159 54.1244C7.38735 53.4888 8.01231 53.0916 8.53643 52.9328C9.10091 52.734 9.64523 52.7736 10.1694 53.052C10.6936 53.29 11.2379 53.7668 11.8024 54.482L40.3488 89.2208C41.2764 90.2136 41.74 91.0876 41.74 91.8424C41.74 92.5576 41.1756 93.352 40.0464 94.226ZM6.72207 94.226C5.63343 93.352 5.08911 92.5576 5.08911 91.8424C5.08911 91.0876 5.53263 90.2136 6.41967 89.2208L34.9662 54.482C35.571 53.7668 36.1153 53.29 36.5992 53.052C37.1233 52.7736 37.6475 52.734 38.1716 52.9328C38.7361 53.0916 39.3813 53.4888 40.1068 54.1244C41.1956 55.038 41.74 55.8724 41.74 56.6268C41.74 57.3816 41.2964 58.236 40.4092 59.1892L11.8628 93.8684C11.258 94.5436 10.6936 95.0204 10.1694 95.2984C9.68555 95.5764 9.16139 95.6164 8.59691 95.4176C8.07279 95.2188 7.44783 94.8216 6.72207 94.226ZM65.6488 95.1792C63.6732 95.1792 61.6776 94.9012 59.6616 94.3452C57.6456 93.7492 55.71 92.8752 53.8552 91.7232C52.0008 90.5316 50.3476 89.0816 48.896 87.3736C47.4848 85.6256 46.356 83.6196 45.5092 81.3552C44.6624 79.0512 44.2392 76.5088 44.2392 73.7284C44.2392 70.9872 44.6624 68.5244 45.5092 66.3396C46.356 64.1148 47.4848 62.1684 48.896 60.5C50.3476 58.8316 51.9804 57.4412 53.7948 56.3292C55.6496 55.2168 57.5848 54.3824 59.6008 53.8264C61.6572 53.2304 63.6936 52.9128 65.7096 52.8732C67.7656 52.8732 69.54 53.0916 71.0316 53.5284C72.5236 53.9656 73.7332 54.442 74.6604 54.9584C75.588 55.4352 76.2128 55.7728 76.5352 55.9716C77.1804 56.3688 77.7852 56.8256 78.3496 57.342C78.9544 57.8188 79.2772 58.4144 79.3176 59.1296C79.3576 59.6064 79.2972 60.0432 79.136 60.4404C78.9748 60.798 78.7528 61.1756 78.4708 61.5728C77.9868 62.248 77.5032 62.7444 77.0192 63.0624C76.5352 63.38 76.0516 63.5388 75.5676 63.5388C75.124 63.5388 74.7008 63.42 74.2976 63.1816C73.9348 62.9432 73.4712 62.6452 72.9064 62.2876C72.6648 62.1288 72.2212 61.8904 71.576 61.5728C70.9712 61.2152 70.1448 60.8972 69.0964 60.6192C68.0884 60.3412 66.8584 60.202 65.4072 60.202C63.6732 60.202 61.98 60.5 60.3268 61.096C58.6736 61.692 57.1816 62.5856 55.8512 63.7772C54.5608 64.9292 53.5328 66.3792 52.7668 68.1272C52.0008 69.8352 51.6176 71.8016 51.6176 74.026C51.6176 76.2508 52.0008 78.2368 52.7668 79.9848C53.5328 81.6928 54.5608 83.1428 55.8512 84.3344C57.1816 85.4864 58.6736 86.3604 60.3268 86.9564C61.98 87.5524 63.6732 87.85 65.4072 87.85C66.778 87.85 67.9472 87.7308 68.9148 87.4928C69.9228 87.2144 70.7696 86.8968 71.4552 86.5392C72.1808 86.142 72.7252 85.844 73.088 85.6456C73.5316 85.3672 73.9548 85.1092 74.358 84.8708C74.7612 84.6324 75.1848 84.5132 75.628 84.5132C76.112 84.5132 76.5756 84.6724 77.0192 84.99C77.5032 85.308 77.9668 85.8244 78.4104 86.5392C78.6924 86.9764 78.9144 87.3932 79.0756 87.7904C79.2368 88.188 79.2972 88.6048 79.2568 89.042C79.2168 89.7568 78.894 90.3728 78.2892 90.8892C77.7248 91.3656 77.12 91.7828 76.4748 92.1404C76.1524 92.3388 75.5272 92.6964 74.6 93.2128C73.7128 93.6896 72.5236 94.1264 71.0316 94.524C69.54 94.9608 67.7456 95.1792 65.6488 95.1792Z" fill="#66023C"/>
</g>
<path d="M21.5748 0C22.0585 2.87652e-05 22.5022 0.078742 22.9053 0.237608C23.3085 0.396504 23.6714 0.635088 23.9939 0.952852C24.3567 1.27064 24.6592 1.66826 24.9011 2.14493L37.6717 28.399C33.7333 24.7942 29.1076 21.2182 25.3925 19.5113L21.5141 11.4399L17.6373 19.5421C13.7709 21.3094 9.08153 25.0198 5.21777 28.7117L18.1877 2.08513C18.5103 1.44955 18.9742 0.953152 19.579 0.595636C20.224 0.198445 20.8894 0 21.5748 0Z" fill="#66023C"/>
<path d="M13.9475 25.5109C16.39 24.0502 19.1403 23.0087 21.979 23.1144C24.7251 23.2167 27.3312 24.3847 29.623 25.9242C31.9262 27.4713 34.0269 29.4711 35.7883 31.4134C37.5551 33.3615 39.0165 35.2913 40.0344 36.7313C40.5444 37.4527 40.946 38.0549 41.2212 38.4791C41.3592 38.6913 41.4656 38.8594 41.5384 38.9759C41.5748 39.034 41.6028 39.0795 41.6224 39.1111C41.632 39.127 41.6396 39.1395 41.6448 39.1483C41.6476 39.1526 41.65 39.1559 41.6512 39.1585C41.652 39.1598 41.6532 39.1609 41.6536 39.1618C41.654 39.1622 41.6548 39.164 40.2364 40.0204C38.8178 40.8772 38.818 40.8776 38.8181 40.878C38.8184 40.8784 38.8181 40.8776 38.8181 40.878C38.8175 40.8768 38.8159 40.874 38.8143 40.8712C38.811 40.866 38.8052 40.8568 38.7976 40.8444C38.7823 40.8196 38.7588 40.7812 38.7269 40.73C38.663 40.628 38.566 40.4756 38.4387 40.2796C38.1839 39.8874 37.8071 39.3217 37.3253 38.6402C36.3597 37.2744 34.9826 35.4564 33.3306 33.6349C31.6732 31.8073 29.7743 30.0155 27.7719 28.6704C25.7584 27.3178 23.753 26.4927 21.8554 26.422C19.899 26.3492 17.794 27.0689 15.6513 28.3503C13.5197 29.6251 11.4715 31.3843 9.66894 33.2011C7.87246 35.0118 6.35894 36.8401 5.29322 38.2194C4.76146 38.9077 4.34406 39.4807 4.06114 39.8789C3.91975 40.078 3.81229 40.2332 3.74109 40.3368C3.70549 40.3888 3.67882 40.428 3.66176 40.4532C3.65328 40.466 3.64716 40.4752 3.64341 40.4808C3.64167 40.4832 3.64033 40.4852 3.63963 40.486C3.63976 40.486 3.63925 40.4864 2.25751 39.5718C0.875837 38.6571 0.876197 38.6568 0.876473 38.6564C0.877045 38.6555 0.878305 38.6534 0.879173 38.6521C0.880937 38.6495 0.883213 38.6457 0.886189 38.6413C0.892173 38.6324 0.900737 38.6196 0.911553 38.6036C0.933177 38.5715 0.964501 38.5257 1.00492 38.4667C1.0859 38.3487 1.20413 38.1783 1.35679 37.9635C1.66198 37.534 2.10615 36.9253 2.66821 36.1979C3.79016 34.7457 5.39362 32.8062 7.31322 30.8714C9.22678 28.9427 11.4939 26.9783 13.9475 25.5109Z" fill="#66023C"/>
<path d="M5.83193 41.8148C8.79313 41.8148 11.1937 39.4047 11.1937 36.4317C11.1937 33.4586 8.79313 31.0485 5.83193 31.0485C2.87074 31.0485 0.470215 33.4586 0.470215 36.4317C0.470215 39.4047 2.87074 41.8148 5.83193 41.8148Z" fill="#66023C"/>
<path d="M37.1085 41.8148C40.0697 41.8148 42.4703 39.4047 42.4703 36.4317C42.4703 33.4586 40.0697 31.0485 37.1085 31.0485C34.1473 31.0485 31.7468 33.4586 31.7468 36.4317C31.7468 39.4047 34.1473 41.8148 37.1085 41.8148Z" fill="#66023C"/>
</g>
</g>
<defs>
<clipPath id="clip0_7059_9">
<rect width="84" height="96" fill="white"/>
</clipPath>
</defs>
</svg>
