<svg width="771" height="310" viewBox="0 0 771 310" fill="none" xmlns="http://www.w3.org/2000/svg">
<path d="M103.633 0C105.988 0.000164813 108.148 0.389443 110.111 1.17515C112.073 1.96098 113.84 3.14098 115.41 4.71274C117.177 6.28428 118.65 8.25071 119.827 10.6083L182 140.453C162.826 122.625 140.306 104.939 122.22 96.4972L103.338 56.5784L84.4638 96.6496C65.6403 105.39 42.8103 123.741 24 142L87.1433 10.3125C88.7133 7.16892 90.9724 4.71392 93.9166 2.94583C97.0571 0.981462 100.296 0 103.633 0Z" fill="#1E001A"/>
<path d="M66.0978 126.153C78.0777 118.77 91.571 113.503 105.498 114.037C118.971 114.554 131.756 120.458 142.998 128.24C154.294 136.061 164.6 146.167 173.236 155.982C181.9 165.826 189.064 175.582 194.056 182.858C196.557 186.502 198.524 189.545 199.874 191.689C200.55 192.761 201.072 193.611 201.43 194.2C201.608 194.494 201.748 194.722 201.844 194.882C201.891 194.962 201.929 195.024 201.956 195.069C201.969 195.092 201.98 195.11 201.988 195.123L202 195.148C201.992 195.156 201.742 195.315 194.972 199.576C188.267 203.796 187.953 203.99 187.94 204C187.937 203.995 187.931 203.987 187.924 203.975C187.907 203.948 187.881 203.9 187.843 203.838C187.769 203.713 187.654 203.52 187.498 203.264C187.185 202.75 186.711 201.979 186.088 200.99C184.84 199.01 182.994 196.155 180.634 192.716C175.904 185.821 169.156 176.643 161.065 167.449C152.947 158.225 143.651 149.184 133.848 142.398C123.99 135.573 114.173 131.412 104.888 131.055C95.3145 130.688 85.0119 134.319 74.5202 140.785C64.0834 147.217 54.0513 156.091 45.222 165.262C36.4227 174.401 29.0122 183.632 23.7918 190.595C21.1875 194.069 19.1418 196.96 17.7562 198.969C17.0639 199.973 16.5375 200.757 16.189 201.281C16.0148 201.543 15.8826 201.74 15.7992 201.867C15.7581 201.93 15.7291 201.976 15.7108 202.005C15.7016 202.018 15.694 202.028 15.6907 202.034C15.6533 202.006 15.1591 201.668 8.84336 197.31C2.3309 192.816 2.01422 192.596 2 192.583L2.00402 192.579C2.00687 192.574 2.00769 192.564 2.01205 192.558C2.02073 192.544 2.03376 192.526 2.04822 192.504C2.07753 192.459 2.12027 192.397 2.17279 192.317C2.27901 192.154 2.43226 191.921 2.63089 191.622C3.0282 191.025 3.60613 190.164 4.35479 189.077C5.85145 186.907 8.02832 183.831 10.7843 180.155C16.2853 172.818 24.148 163.018 33.5606 153.241C42.9431 143.496 54.0631 133.57 66.0978 126.153Z" fill="#66023C"/>
<path d="M25.9999 206C40.3592 206 52 194.36 52 180C52 165.64 40.3592 154 25.9999 154C11.6406 154 0 165.64 0 180C0 194.36 11.6406 206 25.9999 206Z" fill="#66023C"/>
<path d="M181 206C195.912 206 208 194.36 208 180C208 165.64 195.912 154 181 154C166.088 154 154 165.64 154 180C154 194.36 166.088 206 181 206Z" fill="#66023C"/>
<path d="M239.501 204.786C234.445 204.786 230.653 203.916 228.125 202.175C225.597 200.628 223.945 198.502 223.167 195.795C222.389 193.087 222 190.187 222 187.094V19.4562C222 16.3626 222.292 13.5589 222.875 11.0453C223.652 8.33835 225.306 6.2115 227.834 4.66466C230.361 2.92447 234.348 2.05438 239.793 2.05438L294.63 2.34441C308.825 2.34441 321.853 4.76133 333.715 9.59515C345.771 14.429 356.175 21.2931 364.926 30.1873C373.676 39.0816 380.385 49.716 385.052 62.0909C389.913 74.2717 392.344 87.7099 392.344 102.405C392.344 117.487 389.913 131.311 385.052 143.879C380.191 156.447 373.384 167.275 364.634 176.362C355.883 185.45 345.48 192.508 333.424 197.535C321.562 202.369 308.339 204.786 293.754 204.786H239.501ZM257.294 169.692H294.63C307.075 169.692 317.964 166.985 327.298 161.571C336.632 155.964 343.827 148.23 348.883 138.368C354.133 128.508 356.758 117.003 356.758 103.855C356.758 90.5136 354.133 78.9124 348.883 69.0515C343.827 58.9971 336.535 51.2628 327.007 45.849C317.673 40.2417 306.783 37.4381 294.338 37.4381H257.294V169.692ZM574.545 201.595C571.042 204.496 567.931 206.429 565.211 207.396C562.682 208.363 560.152 208.169 557.628 206.816C555.295 205.462 552.668 203.142 549.752 199.855L412.076 31.0574C407.992 26.4169 405.951 22.2598 405.951 18.5861C405.951 14.9124 408.479 10.8519 413.535 6.40485C417.035 3.31118 420.049 1.37764 422.577 0.604229C425.299 -0.362538 427.924 -0.169184 430.452 1.18429C432.98 2.34441 435.605 4.66465 438.328 8.14501L576.003 177.233C580.474 182.066 582.709 186.32 582.709 189.994C582.709 193.475 579.99 197.341 574.545 201.595ZM413.826 201.595C408.576 197.341 405.951 193.475 405.951 189.994C405.951 186.32 408.09 182.066 412.368 177.233L550.041 8.14501C552.961 4.66465 555.583 2.34441 557.917 1.18429C560.446 -0.169184 562.975 -0.362538 565.505 0.604229C568.224 1.37764 571.336 3.31118 574.838 6.40485C580.088 10.8519 582.709 14.9124 582.709 18.5861C582.709 22.2598 580.572 26.4169 576.296 31.0574L438.619 199.855C435.703 203.142 432.98 205.462 430.452 206.816C428.119 208.169 425.591 208.363 422.868 207.396C420.34 206.429 417.326 204.496 413.826 201.595ZM698.018 206.236C688.494 206.236 678.866 204.882 669.146 202.175C659.421 199.275 650.087 195.021 641.144 189.414C632.197 183.613 624.223 176.556 617.222 168.242C610.418 159.734 604.973 149.97 600.888 138.949C596.808 127.734 594.763 115.36 594.763 101.825C594.763 88.4836 596.808 76.4953 600.888 65.8613C604.973 55.0332 610.418 45.5589 617.222 37.4381C624.223 29.3172 632.099 22.5499 640.851 17.1359C649.793 11.7221 659.127 7.66164 668.853 4.95469C678.769 2.05438 688.592 0.507551 698.312 0.314198C708.228 0.314198 716.784 1.37765 723.98 3.50454C731.177 5.63141 737.008 7.95166 741.484 10.4653C745.955 12.7855 748.969 14.429 750.524 15.3958C753.636 17.3293 756.551 19.5529 759.276 22.0665C762.192 24.3867 763.747 27.287 763.943 30.7674C764.134 33.0876 763.845 35.2145 763.068 37.148C762.29 38.8883 761.218 40.7251 759.858 42.6586C757.525 45.9456 755.191 48.3626 752.858 49.9094C750.524 51.4563 748.191 52.2295 745.857 52.2295C743.72 52.2295 741.675 51.6494 739.733 50.4895C737.981 49.3293 735.746 47.8792 733.021 46.139C731.857 45.3656 729.719 44.2055 726.608 42.6586C723.687 40.9184 719.705 39.3716 714.646 38.0181C709.784 36.6647 703.855 35.9879 696.854 35.9879C688.494 35.9879 680.324 37.4381 672.35 40.3384C664.381 43.2387 657.185 47.5891 650.767 53.3898C644.544 58.9971 639.589 66.0543 635.89 74.5618C632.197 82.8763 630.348 92.4471 630.348 103.275C630.348 114.103 632.197 123.771 635.89 132.278C639.589 140.592 644.544 147.65 650.767 153.45C657.185 159.057 664.381 163.311 672.35 166.212C680.324 169.112 688.494 170.562 696.854 170.562C703.463 170.562 709.104 169.982 713.771 168.822C718.633 167.468 722.718 165.922 726.02 164.182C729.523 162.248 732.15 160.798 733.896 159.831C736.039 158.477 738.079 157.22 740.021 156.061C741.968 154.9 744.008 154.32 746.151 154.32C748.485 154.32 750.72 155.094 752.858 156.64C755.191 158.187 757.427 160.701 759.565 164.182C760.93 166.308 761.996 168.339 762.774 170.272C763.552 172.205 763.845 174.235 763.65 176.362C763.454 179.843 761.898 182.84 758.983 185.354C756.263 187.674 753.342 189.704 750.231 191.444C748.675 192.411 745.662 194.151 741.19 196.665C736.91 198.985 731.177 201.112 723.98 203.045C716.784 205.172 708.13 206.236 698.018 206.236Z" fill="#1E001A"/>
<path d="M15.33 294V255.87H0.6V250.8H35.4V255.87H20.67V294H15.33ZM63.2466 294V277.77C63.2466 276.23 63.1066 274.75 62.8266 273.33C62.5666 271.91 62.0966 270.64 61.4166 269.52C60.7566 268.38 59.8566 267.48 58.7166 266.82C57.5966 266.16 56.1766 265.83 54.4566 265.83C53.1166 265.83 51.8966 266.06 50.7966 266.52C49.7166 266.96 48.7866 267.64 48.0066 268.56C47.2266 269.48 46.6166 270.64 46.1766 272.04C45.7566 273.42 45.5466 275.05 45.5466 276.93L42.0366 275.85C42.0366 272.71 42.5966 270.02 43.7166 267.78C44.8566 265.52 46.4466 263.79 48.4866 262.59C50.5466 261.37 52.9666 260.76 55.7466 260.76C57.8466 260.76 59.6366 261.09 61.1166 261.75C62.5966 262.41 63.8266 263.29 64.8066 264.39C65.7866 265.47 66.5566 266.69 67.1166 268.05C67.6766 269.39 68.0666 270.76 68.2866 272.16C68.5266 273.54 68.6466 274.85 68.6466 276.09V294H63.2466ZM40.1466 294V250.8H44.9466V274.65H45.5466V294H40.1466ZM90.4861 294.9C87.3061 294.9 84.5261 294.2 82.1461 292.8C79.7861 291.38 77.9461 289.41 76.6261 286.89C75.3061 284.35 74.6461 281.39 74.6461 278.01C74.6461 274.47 75.2961 271.41 76.5961 268.83C77.8961 266.23 79.7061 264.23 82.0261 262.83C84.3661 261.41 87.1061 260.7 90.2461 260.7C93.5061 260.7 96.2761 261.45 98.5561 262.95C100.856 264.45 102.576 266.59 103.716 269.37C104.876 272.15 105.376 275.46 105.216 279.3H99.8161V277.38C99.7561 273.4 98.9461 270.43 97.3861 268.47C95.8261 266.49 93.5061 265.5 90.4261 265.5C87.1261 265.5 84.6161 266.56 82.8961 268.68C81.1761 270.8 80.3161 273.84 80.3161 277.8C80.3161 281.62 81.1761 284.58 82.8961 286.68C84.6161 288.78 87.0661 289.83 90.2461 289.83C92.3861 289.83 94.2461 289.34 95.8261 288.36C97.4061 287.38 98.6461 285.97 99.5461 284.13L104.676 285.9C103.416 288.76 101.516 290.98 98.9761 292.56C96.4561 294.12 93.6261 294.9 90.4861 294.9ZM78.5161 279.3V275.01H102.456V279.3H78.5161ZM120.907 294L135.367 250.8H142.807L157.267 294H151.717L138.187 253.92H139.867L126.457 294H120.907ZM127.867 283.89V278.88H150.307V283.89H127.867ZM175.748 309.3C174.048 309.3 172.388 309.04 170.768 308.52C169.148 308 167.658 307.21 166.298 306.15C164.958 305.11 163.838 303.79 162.938 302.19L167.828 299.61C168.628 301.19 169.758 302.34 171.218 303.06C172.698 303.78 174.218 304.14 175.778 304.14C177.838 304.14 179.548 303.76 180.908 303C182.268 302.26 183.268 301.15 183.908 299.67C184.568 298.19 184.888 296.35 184.868 294.15V285.3H185.498V261.6H190.238V294.21C190.238 295.09 190.208 295.94 190.148 296.76C190.108 297.58 190.008 298.39 189.848 299.19C189.428 301.49 188.598 303.38 187.358 304.86C186.118 306.36 184.518 307.47 182.558 308.19C180.598 308.93 178.328 309.3 175.748 309.3ZM175.358 294.9C172.338 294.9 169.748 294.15 167.588 292.65C165.428 291.13 163.758 289.08 162.578 286.5C161.418 283.92 160.838 281.01 160.838 277.77C160.838 274.53 161.418 271.62 162.578 269.04C163.758 266.46 165.428 264.43 167.588 262.95C169.748 261.45 172.328 260.7 175.328 260.7C178.388 260.7 180.958 261.44 183.038 262.92C185.118 264.4 186.688 266.43 187.748 269.01C188.828 271.59 189.368 274.51 189.368 277.77C189.368 280.99 188.828 283.9 187.748 286.5C186.688 289.08 185.118 291.13 183.038 292.65C180.958 294.15 178.398 294.9 175.358 294.9ZM176.018 290.01C178.198 290.01 179.988 289.49 181.388 288.45C182.788 287.39 183.818 285.94 184.478 284.1C185.158 282.24 185.498 280.13 185.498 277.77C185.498 275.37 185.158 273.26 184.478 271.44C183.818 269.6 182.798 268.17 181.418 267.15C180.038 266.11 178.288 265.59 176.168 265.59C173.968 265.59 172.148 266.13 170.708 267.21C169.288 268.29 168.228 269.75 167.528 271.59C166.848 273.43 166.508 275.49 166.508 277.77C166.508 280.07 166.858 282.15 167.558 284.01C168.258 285.85 169.308 287.31 170.708 288.39C172.128 289.47 173.898 290.01 176.018 290.01ZM212.654 294.9C209.474 294.9 206.694 294.2 204.314 292.8C201.954 291.38 200.114 289.41 198.794 286.89C197.474 284.35 196.814 281.39 196.814 278.01C196.814 274.47 197.464 271.41 198.764 268.83C200.064 266.23 201.874 264.23 204.194 262.83C206.534 261.41 209.274 260.7 212.414 260.7C215.674 260.7 218.444 261.45 220.724 262.95C223.024 264.45 224.744 266.59 225.884 269.37C227.044 272.15 227.544 275.46 227.384 279.3H221.984V277.38C221.924 273.4 221.114 270.43 219.554 268.47C217.994 266.49 215.674 265.5 212.594 265.5C209.294 265.5 206.784 266.56 205.064 268.68C203.344 270.8 202.484 273.84 202.484 277.8C202.484 281.62 203.344 284.58 205.064 286.68C206.784 288.78 209.234 289.83 212.414 289.83C214.554 289.83 216.414 289.34 217.994 288.36C219.574 287.38 220.814 285.97 221.714 284.13L226.844 285.9C225.584 288.76 223.684 290.98 221.144 292.56C218.624 294.12 215.794 294.9 212.654 294.9ZM200.684 279.3V275.01H224.624V279.3H200.684ZM256.254 294V277.77C256.254 276.23 256.114 274.75 255.834 273.33C255.574 271.91 255.104 270.64 254.424 269.52C253.764 268.38 252.864 267.48 251.724 266.82C250.604 266.16 249.184 265.83 247.464 265.83C246.124 265.83 244.904 266.06 243.804 266.52C242.724 266.96 241.794 267.64 241.014 268.56C240.234 269.48 239.624 270.64 239.184 272.04C238.764 273.42 238.554 275.05 238.554 276.93L235.044 275.85C235.044 272.71 235.604 270.02 236.724 267.78C237.864 265.52 239.454 263.79 241.494 262.59C243.554 261.37 245.974 260.76 248.754 260.76C250.854 260.76 252.644 261.09 254.124 261.75C255.604 262.41 256.834 263.29 257.814 264.39C258.794 265.47 259.564 266.69 260.124 268.05C260.684 269.39 261.074 270.76 261.294 272.16C261.534 273.54 261.654 274.85 261.654 276.09V294H256.254ZM233.154 294V261.6H237.954V270.27H238.554V294H233.154ZM287.544 294C285.624 294.38 283.724 294.53 281.844 294.45C279.984 294.39 278.324 294.02 276.864 293.34C275.404 292.64 274.294 291.56 273.534 290.1C272.894 288.82 272.544 287.53 272.484 286.23C272.444 284.91 272.424 283.42 272.424 281.76V252.6H277.764V281.52C277.764 282.84 277.774 283.97 277.794 284.91C277.834 285.85 278.044 286.66 278.424 287.34C279.144 288.62 280.284 289.37 281.844 289.59C283.424 289.81 285.324 289.75 287.544 289.41V294ZM265.854 266.01V261.6H287.544V266.01H265.854ZM294.722 255.87V250.35H300.062V255.87H294.722ZM294.722 294V261.6H300.062V294H294.722ZM322.713 294.9C319.433 294.9 316.643 294.17 314.343 292.71C312.063 291.23 310.323 289.2 309.123 286.62C307.923 284.04 307.303 281.1 307.263 277.8C307.303 274.42 307.933 271.45 309.153 268.89C310.393 266.31 312.163 264.3 314.463 262.86C316.763 261.42 319.533 260.7 322.773 260.7C326.193 260.7 329.133 261.54 331.593 263.22C334.073 264.9 335.733 267.2 336.573 270.12L331.293 271.71C330.613 269.83 329.503 268.37 327.963 267.33C326.443 266.29 324.693 265.77 322.713 265.77C320.493 265.77 318.663 266.29 317.223 267.33C315.783 268.35 314.713 269.77 314.013 271.59C313.313 273.39 312.953 275.46 312.933 277.8C312.973 281.4 313.803 284.31 315.423 286.53C317.063 288.73 319.493 289.83 322.713 289.83C324.833 289.83 326.593 289.35 327.993 288.39C329.393 287.41 330.453 286 331.173 284.16L336.573 285.57C335.453 288.59 333.703 290.9 331.323 292.5C328.943 294.1 326.073 294.9 322.713 294.9ZM354.708 294V250.8H368.028C368.468 250.8 369.238 250.81 370.338 250.83C371.438 250.85 372.488 250.93 373.488 251.07C376.828 251.51 379.618 252.73 381.858 254.73C384.118 256.71 385.818 259.23 386.958 262.29C388.098 265.35 388.668 268.72 388.668 272.4C388.668 276.08 388.098 279.45 386.958 282.51C385.818 285.57 384.118 288.1 381.858 290.1C379.618 292.08 376.828 293.29 373.488 293.73C372.488 293.85 371.428 293.93 370.308 293.97C369.208 293.99 368.448 294 368.028 294H354.708ZM360.198 288.9H368.028C368.788 288.9 369.638 288.88 370.578 288.84C371.518 288.78 372.338 288.69 373.038 288.57C375.398 288.13 377.308 287.14 378.768 285.6C380.228 284.06 381.298 282.14 381.978 279.84C382.658 277.54 382.998 275.06 382.998 272.4C382.998 269.68 382.648 267.17 381.948 264.87C381.268 262.57 380.198 260.66 378.738 259.14C377.278 257.62 375.378 256.65 373.038 256.23C372.338 256.09 371.508 256 370.548 255.96C369.588 255.92 368.748 255.9 368.028 255.9H360.198V288.9ZM404.758 294.9C402.338 294.9 400.308 294.46 398.668 293.58C397.048 292.68 395.818 291.5 394.978 290.04C394.158 288.58 393.748 286.98 393.748 285.24C393.748 283.54 394.068 282.07 394.708 280.83C395.368 279.57 396.288 278.53 397.468 277.71C398.648 276.87 400.058 276.21 401.698 275.73C403.238 275.31 404.958 274.95 406.858 274.65C408.778 274.33 410.718 274.04 412.678 273.78C414.638 273.52 416.468 273.27 418.168 273.03L416.248 274.14C416.308 271.26 415.728 269.13 414.508 267.75C413.308 266.37 411.228 265.68 408.268 265.68C406.308 265.68 404.588 266.13 403.108 267.03C401.648 267.91 400.618 269.35 400.018 271.35L394.948 269.82C395.728 266.98 397.238 264.75 399.478 263.13C401.718 261.51 404.668 260.7 408.328 260.7C411.268 260.7 413.788 261.23 415.888 262.29C418.008 263.33 419.528 264.91 420.448 267.03C420.908 268.03 421.198 269.12 421.318 270.3C421.438 271.46 421.498 272.68 421.498 273.96V294H416.758V286.23L417.868 286.95C416.648 289.57 414.938 291.55 412.738 292.89C410.558 294.23 407.898 294.9 404.758 294.9ZM405.568 290.43C407.488 290.43 409.148 290.09 410.548 289.41C411.968 288.71 413.108 287.8 413.968 286.68C414.828 285.54 415.388 284.3 415.648 282.96C415.948 281.96 416.108 280.85 416.128 279.63C416.168 278.39 416.188 277.44 416.188 276.78L418.048 277.59C416.308 277.83 414.598 278.06 412.918 278.28C411.238 278.5 409.648 278.74 408.148 279C406.648 279.24 405.298 279.53 404.098 279.87C403.218 280.15 402.388 280.51 401.608 280.95C400.848 281.39 400.228 281.96 399.748 282.66C399.288 283.34 399.058 284.19 399.058 285.21C399.058 286.09 399.278 286.93 399.718 287.73C400.178 288.53 400.878 289.18 401.818 289.68C402.778 290.18 404.028 290.43 405.568 290.43ZM447.388 294C445.468 294.38 443.568 294.53 441.688 294.45C439.828 294.39 438.168 294.02 436.708 293.34C435.248 292.64 434.138 291.56 433.378 290.1C432.738 288.82 432.388 287.53 432.328 286.23C432.288 284.91 432.268 283.42 432.268 281.76V252.6H437.608V281.52C437.608 282.84 437.618 283.97 437.638 284.91C437.678 285.85 437.888 286.66 438.268 287.34C438.988 288.62 440.128 289.37 441.688 289.59C443.268 289.81 445.168 289.75 447.388 289.41V294ZM425.698 266.01V261.6H447.388V266.01H425.698ZM463.176 294.9C460.756 294.9 458.726 294.46 457.086 293.58C455.466 292.68 454.236 291.5 453.396 290.04C452.576 288.58 452.166 286.98 452.166 285.24C452.166 283.54 452.486 282.07 453.126 280.83C453.786 279.57 454.706 278.53 455.886 277.71C457.066 276.87 458.476 276.21 460.116 275.73C461.656 275.31 463.376 274.95 465.276 274.65C467.196 274.33 469.136 274.04 471.096 273.78C473.056 273.52 474.886 273.27 476.586 273.03L474.666 274.14C474.726 271.26 474.146 269.13 472.926 267.75C471.726 266.37 469.646 265.68 466.686 265.68C464.726 265.68 463.006 266.13 461.526 267.03C460.066 267.91 459.036 269.35 458.436 271.35L453.366 269.82C454.146 266.98 455.656 264.75 457.896 263.13C460.136 261.51 463.086 260.7 466.746 260.7C469.686 260.7 472.206 261.23 474.306 262.29C476.426 263.33 477.946 264.91 478.866 267.03C479.326 268.03 479.616 269.12 479.736 270.3C479.856 271.46 479.916 272.68 479.916 273.96V294H475.176V286.23L476.286 286.95C475.066 289.57 473.356 291.55 471.156 292.89C468.976 294.23 466.316 294.9 463.176 294.9ZM463.986 290.43C465.906 290.43 467.566 290.09 468.966 289.41C470.386 288.71 471.526 287.8 472.386 286.68C473.246 285.54 473.806 284.3 474.066 282.96C474.366 281.96 474.526 280.85 474.546 279.63C474.586 278.39 474.606 277.44 474.606 276.78L476.466 277.59C474.726 277.83 473.016 278.06 471.336 278.28C469.656 278.5 468.066 278.74 466.566 279C465.066 279.24 463.716 279.53 462.516 279.87C461.636 280.15 460.806 280.51 460.026 280.95C459.266 281.39 458.646 281.96 458.166 282.66C457.706 283.34 457.476 284.19 457.476 285.21C457.476 286.09 457.696 286.93 458.136 287.73C458.596 288.53 459.296 289.18 460.236 289.68C461.196 290.18 462.446 290.43 463.986 290.43ZM499.727 294V250.8H527.027V255.87H505.067V269.4H523.427V274.47H505.067V288.93H527.027V294H499.727ZM530.639 294L543.029 277.62L530.909 261.6H537.269L546.149 273.48L554.939 261.6H561.299L549.179 277.62L561.599 294H555.209L546.149 281.76L537.029 294H530.639ZM578.885 294.9C575.605 294.9 572.815 294.17 570.515 292.71C568.235 291.23 566.495 289.2 565.295 286.62C564.095 284.04 563.475 281.1 563.435 277.8C563.475 274.42 564.105 271.45 565.325 268.89C566.565 266.31 568.335 264.3 570.635 262.86C572.935 261.42 575.705 260.7 578.945 260.7C582.365 260.7 585.305 261.54 587.765 263.22C590.245 264.9 591.905 267.2 592.745 270.12L587.465 271.71C586.785 269.83 585.675 268.37 584.135 267.33C582.615 266.29 580.865 265.77 578.885 265.77C576.665 265.77 574.835 266.29 573.395 267.33C571.955 268.35 570.885 269.77 570.185 271.59C569.485 273.39 569.125 275.46 569.105 277.8C569.145 281.4 569.975 284.31 571.595 286.53C573.235 288.73 575.665 289.83 578.885 289.83C581.005 289.83 582.765 289.35 584.165 288.39C585.565 287.41 586.625 286 587.345 284.16L592.745 285.57C591.625 288.59 589.875 290.9 587.495 292.5C585.115 294.1 582.245 294.9 578.885 294.9ZM621.938 294V277.77C621.938 276.23 621.798 274.75 621.518 273.33C621.258 271.91 620.788 270.64 620.108 269.52C619.448 268.38 618.548 267.48 617.408 266.82C616.288 266.16 614.868 265.83 613.148 265.83C611.808 265.83 610.588 266.06 609.488 266.52C608.408 266.96 607.478 267.64 606.698 268.56C605.918 269.48 605.308 270.64 604.868 272.04C604.448 273.42 604.238 275.05 604.238 276.93L600.728 275.85C600.728 272.71 601.288 270.02 602.408 267.78C603.548 265.52 605.138 263.79 607.178 262.59C609.238 261.37 611.658 260.76 614.438 260.76C616.538 260.76 618.328 261.09 619.808 261.75C621.288 262.41 622.518 263.29 623.498 264.39C624.478 265.47 625.248 266.69 625.808 268.05C626.368 269.39 626.758 270.76 626.978 272.16C627.218 273.54 627.338 274.85 627.338 276.09V294H621.938ZM598.838 294V250.8H603.638V274.65H604.238V294H598.838ZM644.348 294.9C641.928 294.9 639.898 294.46 638.258 293.58C636.638 292.68 635.408 291.5 634.568 290.04C633.748 288.58 633.338 286.98 633.338 285.24C633.338 283.54 633.658 282.07 634.298 280.83C634.958 279.57 635.878 278.53 637.058 277.71C638.238 276.87 639.648 276.21 641.288 275.73C642.828 275.31 644.548 274.95 646.448 274.65C648.368 274.33 650.308 274.04 652.268 273.78C654.228 273.52 656.058 273.27 657.758 273.03L655.838 274.14C655.898 271.26 655.318 269.13 654.098 267.75C652.898 266.37 650.818 265.68 647.858 265.68C645.898 265.68 644.178 266.13 642.698 267.03C641.238 267.91 640.208 269.35 639.608 271.35L634.538 269.82C635.318 266.98 636.828 264.75 639.068 263.13C641.308 261.51 644.258 260.7 647.918 260.7C650.858 260.7 653.378 261.23 655.478 262.29C657.598 263.33 659.118 264.91 660.038 267.03C660.498 268.03 660.788 269.12 660.908 270.3C661.028 271.46 661.087 272.68 661.087 273.96V294H656.348V286.23L657.458 286.95C656.238 289.57 654.528 291.55 652.328 292.89C650.148 294.23 647.488 294.9 644.348 294.9ZM645.158 290.43C647.078 290.43 648.738 290.09 650.138 289.41C651.558 288.71 652.698 287.8 653.558 286.68C654.418 285.54 654.978 284.3 655.238 282.96C655.538 281.96 655.698 280.85 655.718 279.63C655.758 278.39 655.778 277.44 655.778 276.78L657.638 277.59C655.898 277.83 654.188 278.06 652.508 278.28C650.828 278.5 649.238 278.74 647.738 279C646.238 279.24 644.888 279.53 643.688 279.87C642.808 280.15 641.978 280.51 641.198 280.95C640.438 281.39 639.818 281.96 639.338 282.66C638.877 283.34 638.647 284.19 638.647 285.21C638.647 286.09 638.868 286.93 639.308 287.73C639.768 288.53 640.468 289.18 641.408 289.68C642.368 290.18 643.618 290.43 645.158 290.43ZM691.958 294V277.77C691.958 276.23 691.818 274.75 691.538 273.33C691.278 271.91 690.808 270.64 690.128 269.52C689.468 268.38 688.568 267.48 687.428 266.82C686.308 266.16 684.888 265.83 683.168 265.83C681.828 265.83 680.608 266.06 679.508 266.52C678.428 266.96 677.498 267.64 676.718 268.56C675.938 269.48 675.328 270.64 674.888 272.04C674.468 273.42 674.258 275.05 674.258 276.93L670.748 275.85C670.748 272.71 671.308 270.02 672.428 267.78C673.568 265.52 675.158 263.79 677.198 262.59C679.258 261.37 681.678 260.76 684.458 260.76C686.558 260.76 688.348 261.09 689.828 261.75C691.308 262.41 692.538 263.29 693.518 264.39C694.498 265.47 695.268 266.69 695.828 268.05C696.388 269.39 696.778 270.76 696.998 272.16C697.238 273.54 697.358 274.85 697.358 276.09V294H691.958ZM668.858 294V261.6H673.658V270.27H674.258V294H668.858ZM718.267 309.3C716.567 309.3 714.907 309.04 713.287 308.52C711.667 308 710.177 307.21 708.817 306.15C707.477 305.11 706.357 303.79 705.457 302.19L710.347 299.61C711.147 301.19 712.277 302.34 713.737 303.06C715.217 303.78 716.737 304.14 718.297 304.14C720.357 304.14 722.067 303.76 723.427 303C724.787 302.26 725.787 301.15 726.427 299.67C727.087 298.19 727.407 296.35 727.387 294.15V285.3H728.017V261.6H732.757V294.21C732.757 295.09 732.727 295.94 732.667 296.76C732.627 297.58 732.527 298.39 732.367 299.19C731.947 301.49 731.117 303.38 729.877 304.86C728.637 306.36 727.037 307.47 725.077 308.19C723.117 308.93 720.847 309.3 718.267 309.3ZM717.877 294.9C714.857 294.9 712.267 294.15 710.107 292.65C707.947 291.13 706.277 289.08 705.097 286.5C703.937 283.92 703.357 281.01 703.357 277.77C703.357 274.53 703.937 271.62 705.097 269.04C706.277 266.46 707.947 264.43 710.107 262.95C712.267 261.45 714.847 260.7 717.847 260.7C720.907 260.7 723.477 261.44 725.557 262.92C727.637 264.4 729.207 266.43 730.267 269.01C731.347 271.59 731.887 274.51 731.887 277.77C731.887 280.99 731.347 283.9 730.267 286.5C729.207 289.08 727.637 291.13 725.557 292.65C723.477 294.15 720.917 294.9 717.877 294.9ZM718.537 290.01C720.717 290.01 722.507 289.49 723.907 288.45C725.307 287.39 726.337 285.94 726.997 284.1C727.677 282.24 728.017 280.13 728.017 277.77C728.017 275.37 727.677 273.26 726.997 271.44C726.337 269.6 725.317 268.17 723.937 267.15C722.557 266.11 720.807 265.59 718.687 265.59C716.487 265.59 714.667 266.13 713.227 267.21C711.807 268.29 710.747 269.75 710.047 271.59C709.367 273.43 709.027 275.49 709.027 277.77C709.027 280.07 709.377 282.15 710.077 284.01C710.777 285.85 711.827 287.31 713.227 288.39C714.647 289.47 716.417 290.01 718.537 290.01ZM755.174 294.9C751.994 294.9 749.214 294.2 746.834 292.8C744.474 291.38 742.634 289.41 741.314 286.89C739.994 284.35 739.334 281.39 739.334 278.01C739.334 274.47 739.984 271.41 741.284 268.83C742.584 266.23 744.394 264.23 746.714 262.83C749.054 261.41 751.794 260.7 754.934 260.7C758.194 260.7 760.964 261.45 763.244 262.95C765.544 264.45 767.264 266.59 768.404 269.37C769.564 272.15 770.064 275.46 769.904 279.3H764.504V277.38C764.444 273.4 763.634 270.43 762.074 268.47C760.514 266.49 758.194 265.5 755.114 265.5C751.814 265.5 749.304 266.56 747.584 268.68C745.864 270.8 745.004 273.84 745.004 277.8C745.004 281.62 745.864 284.58 747.584 286.68C749.304 288.78 751.754 289.83 754.934 289.83C757.074 289.83 758.934 289.34 760.514 288.36C762.094 287.38 763.334 285.97 764.234 284.13L769.364 285.9C768.104 288.76 766.204 290.98 763.664 292.56C761.144 294.12 758.314 294.9 755.174 294.9ZM743.204 279.3V275.01H767.144V279.3H743.204Z" fill="#1E001A"/>
</svg>
