<svg width="21" height="24" viewBox="0 0 21 24" fill="none" xmlns="http://www.w3.org/2000/svg">
<g clip-path="url(#clip0_5197_26125)">
<mask id="mask0_5197_26125" style="mask-type:luminance" maskUnits="userSpaceOnUse" x="0" y="0" width="21" height="24">
<path d="M21 0H0V24H21V0Z" fill="white"/>
</mask>
<g mask="url(#mask0_5197_26125)">
<mask id="mask1_5197_26125" style="mask-type:luminance" maskUnits="userSpaceOnUse" x="0" y="0" width="21" height="24">
<path d="M21 0H0V24H21V0Z" fill="white"/>
</mask>
<g mask="url(#mask1_5197_26125)">
<path d="M12.4079 10.479C12.1458 10.479 11.9492 10.4343 11.8182 10.3449C11.6871 10.2654 11.6015 10.1562 11.5611 10.0172C11.5208 9.87813 11.5007 9.72916 11.5007 9.57027V0.960063C11.5007 0.801166 11.5158 0.657166 11.546 0.528063C11.5863 0.389028 11.672 0.279787 11.803 0.200338C11.9341 0.110959 12.1407 0.0662689 12.423 0.0662689L15.2655 0.0811661C16.0014 0.0811661 16.6767 0.205304 17.2916 0.45358C17.9166 0.701856 18.4558 1.05441 18.9094 1.51123C19.363 1.96806 19.7108 2.51427 19.9527 3.14985C20.2047 3.77551 20.3307 4.46572 20.3307 5.22047C20.3307 5.99509 20.2047 6.70516 19.9527 7.35068C19.7007 7.9962 19.3479 8.55234 18.8943 9.01909C18.4407 9.48585 17.9015 9.84834 17.2765 10.1065C16.6616 10.3548 15.9762 10.479 15.2202 10.479H12.4079ZM13.3302 8.67647H15.2655C15.9107 8.67647 16.4751 8.53744 16.959 8.25937C17.4428 7.97137 17.8158 7.57413 18.0779 7.06765C18.35 6.56116 18.4861 5.97027 18.4861 5.29496C18.4861 4.60972 18.35 4.01385 18.0779 3.50737C17.8158 2.99096 17.4378 2.59372 16.9439 2.31565C16.46 2.02765 15.8955 1.88365 15.2504 1.88365H13.3302V8.67647ZM10.0116 23.5565C9.83019 23.7054 9.66892 23.8047 9.5278 23.8544C9.39676 23.9041 9.26572 23.8941 9.13468 23.8246C9.01372 23.7551 8.87763 23.6359 8.72643 23.4671L1.5898 14.7973C1.37812 14.559 1.27228 14.3454 1.27228 14.1567C1.27228 13.9681 1.40332 13.7595 1.6654 13.5311C1.84684 13.3722 2.00308 13.2729 2.13411 13.2332C2.27523 13.1835 2.41131 13.1934 2.54235 13.263C2.67339 13.3225 2.80947 13.4417 2.95059 13.6205L10.0872 22.3052C10.3191 22.5534 10.435 22.7719 10.435 22.9606C10.435 23.1394 10.2939 23.338 10.0116 23.5565ZM1.68052 23.5565C1.40836 23.338 1.27228 23.1394 1.27228 22.9606C1.27228 22.7719 1.38316 22.5534 1.60492 22.3052L8.74155 13.6205C8.89275 13.4417 9.02883 13.3225 9.14979 13.263C9.28083 13.1934 9.41187 13.1835 9.54291 13.2332C9.68403 13.2729 9.84532 13.3722 10.0267 13.5311C10.2989 13.7595 10.435 13.9681 10.435 14.1567C10.435 14.3454 10.3241 14.559 10.1023 14.7973L2.96571 23.4671C2.81451 23.6359 2.67339 23.7551 2.54235 23.8246C2.42139 23.8941 2.29035 23.9041 2.14923 23.8544C2.0182 23.8047 1.86196 23.7054 1.68052 23.5565ZM16.4122 23.7948C15.9183 23.7948 15.4194 23.7253 14.9154 23.5863C14.4114 23.4373 13.9275 23.2188 13.4638 22.9308C13.0002 22.6329 12.5869 22.2704 12.224 21.8434C11.8712 21.4064 11.589 20.9049 11.3773 20.3388C11.1656 19.7628 11.0598 19.1272 11.0598 18.4321C11.0598 17.7468 11.1656 17.1311 11.3773 16.5849C11.589 16.0287 11.8712 15.5421 12.224 15.125C12.5869 14.7079 12.9951 14.3603 13.4487 14.0823C13.9124 13.8042 14.3962 13.5956 14.9002 13.4566C15.4143 13.3076 15.9234 13.2282 16.4274 13.2183C16.9414 13.2183 17.385 13.2729 17.7579 13.3821C18.1309 13.4914 18.4333 13.6105 18.6651 13.7396C18.897 13.8588 19.0532 13.9432 19.1338 13.9929C19.2951 14.0922 19.4463 14.2064 19.5874 14.3355C19.7386 14.4547 19.8193 14.6036 19.8294 14.7824C19.8394 14.9016 19.8243 15.0108 19.784 15.1101C19.7437 15.1995 19.6882 15.2939 19.6177 15.3932C19.4967 15.562 19.3758 15.6861 19.2548 15.7656C19.1338 15.845 19.0129 15.8847 18.8919 15.8847C18.781 15.8847 18.6752 15.855 18.5744 15.7954C18.4837 15.7358 18.3678 15.6613 18.2266 15.5719C18.1662 15.5322 18.0553 15.4726 17.894 15.3932C17.7428 15.3038 17.5362 15.2243 17.2741 15.1548C17.0221 15.0853 16.7146 15.0505 16.3518 15.0505C15.9183 15.0505 15.495 15.125 15.0817 15.274C14.6684 15.423 14.2954 15.6464 13.9628 15.9443C13.6402 16.2323 13.3832 16.5948 13.1917 17.0318C13.0002 17.4588 12.9044 17.9504 12.9044 18.5065C12.9044 19.0627 13.0002 19.5592 13.1917 19.9962C13.3832 20.4232 13.6402 20.7857 13.9628 21.0836C14.2954 21.3716 14.6684 21.5901 15.0817 21.7391C15.495 21.8881 15.9183 21.9625 16.3518 21.9625C16.6945 21.9625 16.9868 21.9327 17.2287 21.8732C17.4807 21.8036 17.6924 21.7242 17.8638 21.6348C18.0452 21.5355 18.1813 21.461 18.272 21.4114C18.3829 21.3418 18.4887 21.2773 18.5895 21.2177C18.6903 21.1581 18.7962 21.1283 18.907 21.1283C19.028 21.1283 19.1439 21.1681 19.2548 21.2475C19.3758 21.327 19.4917 21.4561 19.6026 21.6348C19.6731 21.7441 19.7286 21.8483 19.7689 21.9476C19.8092 22.047 19.8243 22.1512 19.8142 22.2605C19.8042 22.4392 19.7235 22.5932 19.5723 22.7223C19.4312 22.8414 19.28 22.9457 19.1187 23.0351C19.0381 23.0847 18.8818 23.1741 18.65 23.3032C18.4282 23.4224 18.1309 23.5316 17.7579 23.631C17.385 23.7402 16.9364 23.7948 16.4122 23.7948Z" fill="#66023C"/>
</g>
<path d="M5.3937 0C5.51462 7.19131e-06 5.62554 0.0196855 5.72632 0.059402C5.82712 0.0991261 5.91784 0.158772 5.99846 0.238213C6.08918 0.317661 6.1648 0.417065 6.22528 0.536233L9.41793 7.09974C8.43333 6.19854 7.2769 5.30454 6.34813 4.87782L5.37852 2.85998L4.40933 4.88552C3.44272 5.32736 2.27038 6.25496 1.30444 7.17793L4.54692 0.521283C4.62756 0.362388 4.74354 0.238288 4.89474 0.148909C5.056 0.0496112 5.22235 0 5.3937 0Z" fill="#66023C"/>
<path d="M3.48687 6.37773C4.0975 6.01254 4.78507 5.75216 5.49475 5.77859C6.18126 5.80416 6.83279 6.09616 7.40575 6.48104C7.98154 6.86782 8.50672 7.36778 8.94708 7.85334C9.38877 8.34038 9.75412 8.82283 10.0086 9.18282C10.1361 9.36317 10.2365 9.51373 10.3053 9.61978C10.3398 9.67281 10.3664 9.71485 10.3846 9.74397C10.3937 9.7585 10.4007 9.76988 10.4056 9.77778C10.408 9.78174 10.4099 9.78486 10.4112 9.78707C10.4119 9.78814 10.4125 9.78898 10.4128 9.78963C10.413 9.78994 10.4133 9.79023 10.4134 9.79044C10.4135 9.79055 10.4137 9.79099 10.0591 10.0051C9.70445 10.2193 9.70449 10.2194 9.70452 10.2195C9.70451 10.2194 9.7046 10.2196 9.70452 10.2195C9.70437 10.2192 9.70397 10.2185 9.70357 10.2178C9.70274 10.2165 9.7013 10.2142 9.69939 10.2111C9.69558 10.2049 9.68969 10.1953 9.68172 10.1825C9.66575 10.157 9.64149 10.1189 9.60967 10.0699C9.54598 9.97185 9.45178 9.83042 9.33133 9.66005C9.08993 9.3186 8.74564 8.86409 8.33265 8.40871C7.9183 7.95181 7.44358 7.50387 6.94298 7.1676C6.43959 6.82945 5.93825 6.62317 5.46385 6.6055C4.97475 6.58729 4.4485 6.76722 3.91281 7.08758C3.37992 7.40628 2.86787 7.84606 2.41723 8.30027C1.96811 8.75295 1.58973 9.21001 1.3233 9.55485C1.19036 9.72691 1.08601 9.87018 1.01528 9.96972C0.979937 10.0195 0.953073 10.0583 0.935273 10.0842C0.926373 10.0972 0.919704 10.107 0.91544 10.1133C0.91332 10.1165 0.911791 10.1188 0.910852 10.1202C0.910418 10.1208 0.910082 10.1213 0.909908 10.1215C0.909939 10.1215 0.909813 10.1216 0.564378 9.89295C0.218959 9.66428 0.219049 9.6642 0.219118 9.66409C0.219261 9.66388 0.219576 9.66334 0.219793 9.66302C0.220234 9.66236 0.220803 9.66143 0.221547 9.66032C0.223043 9.65809 0.225184 9.6549 0.227888 9.65089C0.233294 9.64288 0.241125 9.63141 0.251229 9.61668C0.271474 9.58716 0.301033 9.54458 0.339197 9.49087C0.415495 9.38349 0.526537 9.23133 0.667052 9.04947C0.947539 8.68643 1.3484 8.20155 1.8283 7.71784C2.30669 7.23567 2.87346 6.74458 3.48687 6.37773Z" fill="#66023C"/>
<path d="M1.45798 10.4537C2.19828 10.4537 2.79841 9.85118 2.79841 9.10792C2.79841 8.36466 2.19828 7.76213 1.45798 7.76213C0.717685 7.76213 0.117554 8.36466 0.117554 9.10792C0.117554 9.85118 0.717685 10.4537 1.45798 10.4537Z" fill="#66023C"/>
<path d="M9.27714 10.4537C10.0174 10.4537 10.6176 9.85118 10.6176 9.10792C10.6176 8.36466 10.0174 7.76213 9.27714 7.76213C8.53684 7.76213 7.93671 8.36466 7.93671 9.10792C7.93671 9.85118 8.53684 10.4537 9.27714 10.4537Z" fill="#66023C"/>
</g>
</g>
<defs>
<clipPath id="clip0_5197_26125">
<rect width="21" height="24" fill="white"/>
</clipPath>
</defs>
</svg>
