<svg width="149" height="41" viewBox="0 0 149 41" fill="none" xmlns="http://www.w3.org/2000/svg">
<g clip-path="url(#clip0_5197_26205)">
<path d="M20.1889 0.149078C20.6516 0.14911 21.076 0.224692 21.4616 0.377245C21.8473 0.529821 22.1944 0.758928 22.503 1.0641C22.8501 1.36923 23.1395 1.75103 23.3708 2.20877L35.5874 27.4194C31.8198 23.9578 27.3948 20.524 23.841 18.8849L20.1308 11.1343L16.4222 18.9145C12.7235 20.6116 8.23753 24.1746 4.54144 27.7197L16.9487 2.15134C17.2572 1.54099 17.7011 1.06433 18.2796 0.721039C18.8967 0.339638 19.5332 0.149078 20.1889 0.149078Z" fill="#1E001A"/>
<path d="M12.8854 24.6183C15.2238 23.2145 17.8576 22.2131 20.5761 22.3147C23.2058 22.413 25.7015 23.5356 27.8958 25.0152C30.1008 26.5021 32.1123 28.4237 33.7981 30.2898C35.4892 32.1616 36.8876 34.0165 37.862 35.3999C38.3501 36.0929 38.7341 36.6714 38.9977 37.079C39.1296 37.2828 39.2314 37.4445 39.3013 37.5565C39.3361 37.6124 39.3634 37.6557 39.3821 37.6861C39.3914 37.7013 39.3988 37.7132 39.404 37.7217C39.4066 37.726 39.4087 37.7295 39.4103 37.732L39.4126 37.7367C39.4111 37.7382 39.3622 37.7685 38.0408 38.5787C36.7321 39.3811 36.6708 39.4179 36.6681 39.4198C36.6676 39.4189 36.6664 39.4174 36.665 39.4151C36.6618 39.4099 36.6566 39.4008 36.6493 39.389C36.6348 39.3653 36.6123 39.3286 36.5819 39.2799C36.5209 39.1821 36.4282 39.0355 36.3066 38.8475C36.0631 38.471 35.7028 37.9282 35.2422 37.2743C34.3189 35.9634 33.0017 34.2183 31.4223 32.4701C29.8378 30.7163 28.0233 28.9974 26.1098 27.707C24.1855 26.4094 22.2693 25.6182 20.4569 25.5504C18.5883 25.4806 16.5773 26.1709 14.5294 27.4003C12.4922 28.6233 10.534 30.3106 8.81058 32.0543C7.09302 33.792 5.64654 35.5472 4.62755 36.8711C4.11921 37.5315 3.71989 38.0812 3.44943 38.4633C3.31431 38.6542 3.21156 38.8032 3.14353 38.9028C3.10952 38.9526 3.08372 38.9901 3.06745 39.0143C3.05943 39.0262 3.05377 39.035 3.05019 39.0404C3.0484 39.043 3.04691 39.0449 3.04627 39.0459C3.03897 39.0407 2.94251 38.9764 1.70971 38.1478C0.438522 37.2934 0.376708 37.2514 0.373932 37.249L0.374716 37.2482C0.375273 37.2473 0.375434 37.2455 0.376285 37.2442C0.377978 37.2417 0.380521 37.2382 0.383344 37.234C0.389066 37.2254 0.397408 37.2136 0.40766 37.1984C0.428392 37.1675 0.458306 37.1231 0.497077 37.0664C0.574629 36.9528 0.687438 36.789 0.833571 36.5825C1.12571 36.1698 1.55062 35.5849 2.08856 34.886C3.16232 33.491 4.69707 31.6277 6.53435 29.7688C8.36576 27.9158 10.5363 26.0286 12.8854 24.6183Z" fill="#66023C"/>
<path d="M5.12908 40.3014C7.96179 40.3014 10.2582 37.9871 10.2582 35.1322C10.2582 32.2773 7.96179 29.963 5.12908 29.963C2.29637 29.963 0 32.2773 0 35.1322C0 37.9871 2.29637 40.3014 5.12908 40.3014Z" fill="#66023C"/>
<path d="M35.0487 40.3014C37.8814 40.3014 40.1778 37.9871 40.1778 35.1322C40.1778 32.2773 37.8814 29.963 35.0487 29.963C32.216 29.963 29.9196 32.2773 29.9196 35.1322C29.9196 37.9871 32.216 40.3014 35.0487 40.3014Z" fill="#66023C"/>
<path d="M46.3478 39.8883C45.3663 39.8883 44.6301 39.7188 44.1394 39.3798C43.6486 39.0785 43.3278 38.6643 43.1768 38.137C43.0258 37.6097 42.9503 37.0448 42.9503 36.4422V3.78969C42.9503 3.18711 43.0069 2.64102 43.1201 2.15142C43.2711 1.62415 43.592 1.20988 44.0828 0.908585C44.5735 0.569631 45.3474 0.400154 46.4044 0.400154L57.0499 0.456646C59.8056 0.456646 62.3349 0.927416 64.6376 1.86895C66.9781 2.81049 68.9978 4.14748 70.6965 5.87991C72.3953 7.61234 73.6976 9.68372 74.6036 12.0941C75.5474 14.4667 76.0193 17.0842 76.0193 19.9465C76.0193 22.8841 75.5474 25.5769 74.6036 28.0249C73.6599 30.4729 72.3386 32.5819 70.6399 34.352C68.9411 36.1221 66.9215 37.4968 64.581 38.476C62.2783 39.4175 59.7113 39.8883 56.88 39.8883H46.3478ZM49.8019 33.0527H57.0499C59.4659 33.0527 61.5799 32.5254 63.3919 31.4709C65.2039 30.3787 66.6006 28.8723 67.5821 26.9515C68.6014 25.0308 69.111 22.7899 69.111 20.229C69.111 17.6303 68.6014 15.3706 67.5821 13.4499C66.6006 11.4915 65.185 9.98501 63.3353 8.93049C61.5233 7.83831 59.4093 7.29221 56.9933 7.29221H49.8019V33.0527ZM111.39 39.2669C110.71 39.8318 110.106 40.2084 109.578 40.3967C109.087 40.585 108.596 40.5473 108.106 40.2837C107.653 40.0201 107.143 39.5681 106.577 38.9279L79.8499 6.04938C79.0571 5.14551 78.6607 4.33578 78.6607 3.62021C78.6607 2.90465 79.1515 2.11375 80.133 1.24754C80.8125 0.644953 81.3976 0.268338 81.8884 0.117692C82.4169 -0.0706154 82.9265 -0.0329538 83.4172 0.230677C83.908 0.456646 84.4176 0.908584 84.9461 1.58649L111.673 34.5215C112.541 35.463 112.975 36.2916 112.975 37.0072C112.975 37.6851 112.447 38.4383 111.39 39.2669ZM80.1896 39.2669C79.1704 38.4383 78.6607 37.6851 78.6607 37.0072C78.6607 36.2916 79.076 35.463 79.9065 34.5215L106.633 1.58649C107.2 0.908584 107.709 0.456646 108.162 0.230677C108.653 -0.0329538 109.144 -0.0706154 109.635 0.117692C110.163 0.268338 110.767 0.644953 111.447 1.24754C112.466 2.11375 112.975 2.90465 112.975 3.62021C112.975 4.33578 112.56 5.14551 111.73 6.04938L85.0027 38.9279C84.4365 39.5681 83.908 40.0201 83.4172 40.2837C82.9642 40.5473 82.4735 40.585 81.945 40.3967C81.4542 40.2084 80.8691 39.8318 80.1896 39.2669ZM135.36 40.1707C133.511 40.1707 131.642 39.9071 129.755 39.3798C127.867 38.8149 126.055 37.9864 124.319 36.8942C122.582 35.7643 121.034 34.3897 119.675 32.7702C118.354 31.1131 117.297 29.2112 116.504 27.0645C115.712 24.8802 115.315 22.4698 115.315 19.8335C115.315 17.2349 115.712 14.8998 116.504 12.8285C117.297 10.7194 118.354 8.874 119.675 7.29221C121.034 5.71043 122.563 4.39228 124.262 3.33775C125.998 2.28323 127.81 1.49234 129.698 0.965077C131.623 0.400154 133.53 0.0988612 135.417 0.0611997C137.342 0.0611997 139.003 0.268339 140.4 0.682616C141.797 1.09689 142.929 1.54883 143.798 2.03843C144.666 2.49037 145.251 2.81049 145.553 2.9988C146.157 3.37541 146.723 3.80852 147.252 4.29812C147.818 4.75006 148.12 5.31498 148.158 5.99289C148.195 6.44483 148.139 6.85911 147.988 7.23572C147.837 7.57468 147.629 7.93246 147.365 8.30908C146.912 8.94932 146.459 9.42009 146.006 9.72138C145.553 10.0227 145.1 10.1733 144.647 10.1733C144.232 10.1733 143.835 10.0603 143.458 9.83437C143.118 9.6084 142.684 9.32594 142.155 8.98698C141.929 8.83634 141.514 8.61037 140.91 8.30908C140.343 7.97012 139.57 7.66883 138.588 7.4052C137.644 7.14157 136.493 7.00975 135.134 7.00975C133.511 7.00975 131.925 7.29221 130.377 7.85714C128.83 8.42206 127.433 9.26944 126.187 10.3993C124.979 11.4915 124.017 12.8661 123.299 14.5232C122.582 16.1427 122.223 18.0069 122.223 20.116C122.223 22.225 122.582 24.1081 123.299 25.7652C124.017 27.3846 124.979 28.7593 126.187 29.8891C127.433 30.9813 128.83 31.8099 130.377 32.3748C131.925 32.9397 133.511 33.2222 135.134 33.2222C136.417 33.2222 137.512 33.1092 138.418 32.8832C139.362 32.6196 140.155 32.3183 140.796 31.9794C141.476 31.6027 141.986 31.3203 142.325 31.132C142.741 30.8683 143.137 30.6235 143.514 30.3976C143.892 30.1716 144.288 30.0586 144.704 30.0586C145.157 30.0586 145.591 30.2093 146.006 30.5105C146.459 30.8118 146.893 31.3014 147.308 31.9794C147.573 32.3936 147.78 32.7891 147.931 33.1657C148.082 33.5423 148.139 33.9377 148.101 34.352C148.063 35.0299 147.761 35.6137 147.195 36.1033C146.667 36.5552 146.1 36.9507 145.496 37.2896C145.194 37.4779 144.609 37.8169 143.741 38.3065C142.91 38.7584 141.797 39.1727 140.4 39.5493C139.003 39.9636 137.323 40.1707 135.36 40.1707Z" fill="#1E001A"/>
</g>
<defs>
<clipPath id="clip0_5197_26205">
<rect width="149" height="41" fill="white"/>
</clipPath>
</defs>
</svg>
