<svg width="454" height="106" viewBox="0 0 454 106" fill="none" xmlns="http://www.w3.org/2000/svg">
<g clip-path="url(#clip0_7070_22)">
<path d="M298.186 10.0066V95.5313H322.001V69.4022H336.111C358.033 69.4022 372.129 61.2679 372.129 39.7013C372.129 18.1347 358.033 10.0066 336.111 10.0066H298.186ZM333.702 51.535H321.987V27.8677H333.702C343.4 27.8677 347.432 31.316 347.432 39.7013C347.432 48.0866 343.407 51.535 333.702 51.535Z" fill="black"/>
<path d="M374.715 10.0066V29.9728H402.297V95.5313H426.113V29.9728H453.709V10.0066H374.715Z" fill="black"/>
<path d="M245.994 61.4H285.915V42.9074H245.994V29.4751H290.333V10H222.185V95.5269H291.459V76.0522H245.987V61.3956H246.001L245.994 61.4Z" fill="black"/>
<path d="M168.649 10.0066H132V95.5313H168.649C202.904 95.5313 216.396 76.9198 216.396 52.7593C216.396 28.5987 202.917 10.0066 168.649 10.0066ZM168.283 75.9377H155.802V29.5984H168.283C181.748 29.5984 191.447 35.883 191.447 52.7593C191.447 69.6356 181.748 75.9201 168.283 75.9201V75.9377Z" fill="black"/>
<path d="M449.318 85.1466C449.318 83.1339 447.994 82.1915 445.721 82.1915H440.569V91.1757H443.365V88.2206H444.967L446.643 91.1757H449.684L447.655 87.6877C448.591 87.3134 449.297 86.2828 449.297 85.1466H449.318ZM445.11 86.2035H443.386V84.3098H445.11C445.999 84.3098 446.48 84.5344 446.48 85.1774C446.48 85.8953 446.005 86.2124 445.11 86.2124V86.2035Z" fill="black"/>
<path d="M444.757 78.2014C439.836 78.2014 435.852 82.1122 435.852 86.8906C435.852 91.669 439.836 95.5313 444.757 95.5313C449.677 95.5313 453.702 91.669 453.702 86.8906C453.702 82.1122 449.677 78.2014 444.757 78.2014ZM444.757 94.0119C440.773 94.0119 437.576 90.8322 437.576 86.8774C437.576 82.9226 440.773 79.712 444.757 79.712C448.741 79.712 451.985 82.9358 451.985 86.8774C451.985 90.819 448.754 94.0119 444.757 94.0119Z" fill="black"/>
<path d="M108 45.6894V60.0492H77.3555L102.249 77.9382L93.8739 89.6471L68.8336 71.6401L78.5126 101.129L64.8411 105.87L56.9205 81.7443C56.3007 79.8152 56 77.7613 56 75.6731C56 66.8263 61.4249 57.321 71.2098 53.6262V52.1146C61.4249 48.4197 56 38.9123 56 30.0676C56 27.9796 56.303 25.9256 56.9205 23.9964L64.8411 -0.129578L78.5126 4.61165L68.8336 34.1007L93.8739 16.0935L102.249 27.8025L77.3555 45.6917H108V45.6894Z" fill="black"/>
<path d="M0 45.6894V60.0469H30.0551L5.64045 77.9382L13.8544 89.6471L38.4132 71.6401L28.9202 101.127L42.3288 105.87L50.097 81.7443C50.705 79.8152 51 77.7613 51 75.6731C51 66.8263 45.6793 57.321 36.0828 53.6262V52.1146C45.6793 48.4197 51 38.9123 51 30.0676C51 27.9796 50.7027 25.9256 50.097 23.9964L42.3288 -0.129578L28.9202 4.61165L38.4132 34.1007L13.8544 16.0935L5.64045 27.8025L30.0551 45.6917H0V45.6894Z" fill="black"/>
</g>
<defs>
<clipPath id="clip0_7070_22">
<rect width="454" height="106" fill="white"/>
</clipPath>
</defs>
</svg>
