<svg width="1280" height="800" viewBox="0 0 1280 800" fill="none" xmlns="http://www.w3.org/2000/svg">
<g clip-path="url(#clip0_554_20782)">
<path d="M5015.62 -531.602H4773.49C4730.22 -531.602 4691.86 -503.767 4678.43 -462.629L4515.51 36.5288C4502.09 77.6669 4463.72 105.501 4420.45 105.501H3257.61C3247.76 105.501 3238.13 108.41 3229.92 113.863L2936.08 309.215C2927.88 314.668 2918.25 317.577 2908.4 317.577H2715L2552.05 301.918C2545.74 301.311 2539.61 299.511 2533.97 296.613L2440.53 248.567C2426.38 241.294 2410.7 237.5 2394.8 237.5H2270.37C2231.17 237.5 2195.58 214.59 2179.35 178.903L2019.65 -172.189C2003.42 -207.876 1967.83 -230.786 1928.63 -230.786H1431.77C1392.36 -230.786 1356.63 -207.64 1340.51 -171.677L1158.78 233.892C1142.67 269.856 1106.93 293.001 1067.52 293.001H976.647C963.77 293.001 951.013 295.488 939.079 300.326L791.037 360.338C785.07 362.757 778.692 364.001 772.253 364.001H350.354C314.833 364.001 281.978 345.158 264.041 314.499L-61.5366 -241.997C-79.4739 -272.656 -112.329 -291.499 -147.85 -291.499H-290.5" stroke="#008392" stroke-width="2" stroke-linecap="round"/>
<path opacity="0.5" d="M5195 -403.68H4768.34C4726.3 -403.68 4688.75 -377.39 4674.37 -337.89L4530.31 57.8025C4515.93 97.3227 4478.35 123.617 4436.29 123.593L3272.74 122.922C3262.92 122.916 3253.32 125.801 3245.13 131.217L2951.23 325.582C2943.05 330.992 2933.46 333.877 2923.65 333.877H2715L2553.09 326.097C2546.11 325.762 2539.27 323.966 2533.03 320.825L2440.2 274.146C2426.26 267.138 2410.87 263.487 2395.27 263.487L2251.31 263.487C2212.26 263.487 2176.79 240.765 2160.47 205.298L1997.53 -148.705C1981.21 -184.172 1945.74 -206.895 1906.69 -206.895H1447.61C1408.16 -206.895 1372.39 -183.695 1356.3 -147.669L1177.58 252.57C1161.52 288.525 1125.86 311.71 1086.49 311.796L985.15 312.016C972.886 312.043 960.731 314.326 949.293 318.75L790.647 380.114C784.931 382.325 778.857 383.466 772.728 383.48L155.156 384.943C122.752 385.02 92.3206 369.391 73.505 343.01L-190.092 -26.5691C-208.859 -52.8818 -239.186 -68.502 -271.506 -68.502H-592.5" stroke="#008392" stroke-width="2" stroke-linecap="round" stroke-dasharray="6 8"/>
<path opacity="0.5" d="M4893.38 220.457H4706.28C4700.98 220.457 4695.7 220.036 4690.46 219.199L4534.19 194.168C4528.97 193.332 4523.69 192.911 4518.4 192.91L3333.22 192.574C3323.57 192.572 3314.13 195.36 3306.03 200.602L3011.83 391.061C3003.74 396.301 2994.3 399.089 2984.66 399.089H2715L2542.5 399.089L1940.5 401.456L1391.5 452.427L887.733 452.846L661.998 452.427L-432.689 451.631C-469.785 451.604 -503.848 472.114 -521.179 504.913L-651.849 752.216C-669.167 784.992 -703.195 805.498 -740.265 805.498H-999.502" stroke="#008392" stroke-width="2" stroke-linecap="round" stroke-dasharray="6 8"/>
<path opacity="0.5" d="M4947.5 -209.668H4759.09C4721.76 -209.668 4687.53 -188.871 4670.33 -155.734L4544.36 86.9917C4527.15 120.145 4492.9 140.945 4455.55 140.926L3287.86 140.336C3278.08 140.331 3268.52 143.192 3260.36 148.564L2966.38 341.953C2958.22 347.32 2948.67 350.181 2938.9 350.181H2715L2554.12 350.181C2546.48 350.181 2538.93 348.427 2532.07 345.053L2439.86 299.733C2426.14 292.987 2411.05 289.479 2395.75 289.479L2232.25 289.479C2193.36 289.479 2158.01 266.939 2141.59 231.69L1975.41 -125.211C1958.99 -160.461 1923.64 -183 1884.75 -183H1463.68C1424.06 -183 1388.18 -159.612 1372.19 -123.366L1198.77 269.686C1182.8 305.888 1146.98 329.267 1107.42 329.32L994.859 329.472C983.209 329.487 971.652 331.538 960.708 335.533L790.304 397.728C784.81 399.733 779.008 400.758 773.161 400.758H-264.328C-289.511 400.758 -313.767 391.257 -332.25 374.153L-646.75 83.1048C-665.233 66.0003 -689.489 56.499 -714.671 56.499H-986.5" stroke="#008392" stroke-width="2" stroke-linecap="round" stroke-dasharray="6 8"/>
<path opacity="0.5" d="M5226.5 -128.668H4754.97C4719.83 -128.668 4687.27 -110.22 4669.2 -80.0769L4555.49 109.652C4537.41 139.809 4504.83 158.258 4469.67 158.243L3302.98 157.75C3293.25 157.746 3283.72 160.582 3275.58 165.911L2981.53 358.323C2973.39 363.648 2963.88 366.484 2954.16 366.484H2715L2542.5 366.485L1940.5 366.484L1391.5 418.944H941.559L662 418.022L-734.669 416.603C-761.433 416.575 -787.069 405.821 -805.841 386.746L-1030.12 158.857C-1048.91 139.756 -1074.59 129 -1101.39 129H-1484.5" stroke="#008392" stroke-width="2" stroke-linecap="round" stroke-dasharray="6 8"/>
<path d="M5019.88 49.9297H4732.56C4710.37 49.9297 4688.81 57.3122 4671.27 70.9145L4563.42 154.576C4545.87 168.186 4524.3 175.568 4502.09 175.561L3318.1 175.161C3308.41 175.158 3298.93 177.97 3290.81 183.255L2996.69 374.691C2988.57 379.973 2979.1 382.785 2969.41 382.785H2715L2542.5 382.786L1940.5 383.969L1391.5 435.176L914.649 435.294L662.002 435.176H-28.453C-54.7518 435.176 -79.9921 424.817 -98.7074 406.341L-182.789 323.334C-201.504 304.858 -226.744 294.498 -253.043 294.498H-1762" stroke="#008392" stroke-width="2" stroke-linecap="round"/>
<path d="M5161.5 338.573H4730.05C4709.41 338.573 4689.27 332.184 4672.4 320.285L4542.26 228.474C4525.4 216.578 4505.27 210.19 4484.63 210.186L3348.33 209.991C3338.73 209.989 3329.33 212.753 3321.26 217.952L3026.99 407.434C3018.92 412.632 3009.52 415.396 2999.92 415.396H2715L2542.5 415.396L1940.5 418.945L1391.5 471.123L860.823 470.442L662 469.761L231.111 470.951C193.074 471.056 158.389 492.732 141.624 526.876L8.46003 798.077C-8.34897 832.31 -43.1657 854.002 -81.3029 854.002H-306" stroke="#008392" stroke-width="2" stroke-linecap="round"/>
<path d="M2638.5 468.5L2262.15 952.317C2243.17 976.719 2213.97 990.97 2183.05 990.918L1540 989.839L1121.28 990.895C1094.54 990.962 1068.9 980.325 1050.06 961.357L896.041 806.246C877.439 787.513 867 762.184 867 735.785V523" stroke="#008392" stroke-width="2" stroke-linecap="round"/>
<path opacity="0.5" d="M4912 410.985H4738.42C4712.69 410.985 4687.94 401.063 4669.34 383.283L4535.33 255.234C4516.73 237.457 4491.99 227.535 4466.26 227.532L3378.1 227.406C3358.97 227.404 3340.25 232.883 3324.15 243.195L3054.46 415.909C3038.37 426.219 3019.65 431.698 3000.53 431.698H2715L2671.71 432.794C2642.11 433.543 2614.36 447.374 2595.94 470.561L2234.65 925.363C2215.64 949.289 2186.74 963.213 2156.18 963.161L1512.5 962.083L1152.67 961.036C1126.44 960.96 1101.3 950.585 1082.65 932.148L935.058 786.222C915.99 767.369 905.292 741.647 905.367 714.832L905.721 587.431C905.875 532.094 861.059 487.153 805.721 487.153H662H-14.4653C-54.5162 487.153 -90.7038 511.049 -106.432 547.883L-136.275 617.772C-152.003 654.605 -188.19 678.502 -228.241 678.502H-729" stroke="#008392" stroke-width="2" stroke-linecap="round" stroke-dasharray="6 8"/>
<path opacity="0.5" d="M1379.5 489.75H1020.5" stroke="#008392" stroke-width="2" stroke-linecap="round" stroke-dasharray="6 8"/>
<path opacity="0.5" d="M1379.5 509.75H1020.5" stroke="#008392" stroke-width="2" stroke-linecap="round" stroke-dasharray="6 8"/>
<path d="M1275 681.5L1209.35 575.938C1191.1 546.593 1158.99 528.75 1124.43 528.75H973.5" stroke="#008392" stroke-width="2" stroke-linecap="round"/>
<path opacity="0.5" d="M838 525.5H650.968C614.054 525.5 580.142 545.836 562.755 578.4L532 636" stroke="#008392" stroke-width="2" stroke-linecap="round" stroke-dasharray="6 8"/>
<path opacity="0.5" d="M1320 401H1020.5" stroke="#008392" stroke-width="2" stroke-linecap="round" stroke-dasharray="6 8"/>
<path opacity="0.5" d="M1393 382H1021" stroke="#008392" stroke-width="2" stroke-linecap="round" stroke-dasharray="6 8"/>
<path opacity="0.5" d="M1392 364H1020" stroke="#008392" stroke-width="2" stroke-linecap="round" stroke-dasharray="6 8"/>
<path opacity="0.5" d="M1414 40L1292.38 289.779C1275.63 324.174 1240.72 346 1202.47 346H1020" stroke="#008392" stroke-width="2" stroke-linecap="round" stroke-dasharray="6 8"/>
<path opacity="0.5" d="M2585.5 366.833C2585.5 366.834 2585.49 366.835 2585.49 366.835L2181.01 861.78C2162.02 885.019 2133.59 898.5 2103.58 898.5L1463.27 898.5C1428.06 898.5 1395.45 879.983 1377.4 849.748L1275.5 678.998" stroke="#008392" stroke-width="2" stroke-linecap="round" stroke-dasharray="6 8"/>
<path d="M2597.5 381.722L2195.52 877.638C2176.53 901.063 2147.99 914.669 2117.83 914.669L1454.14 914.669C1419 914.669 1386.45 896.228 1368.38 866.092L1258 681.999" stroke="#008392" stroke-width="2" stroke-linecap="round"/>
<path opacity="0.5" d="M2609.5 396.612C2609.5 396.613 2609.5 396.615 2609.5 396.616L2209.52 893.538C2190.54 917.122 2161.89 930.836 2131.62 930.836L1184.51 930.835C1158.53 930.835 1133.57 920.724 1114.91 902.642L973.9 765.968C954.467 747.132 943.498 721.225 943.498 694.162L943.498 470.501" stroke="#008392" stroke-width="2" stroke-linecap="round" stroke-dasharray="6 8"/>
<path opacity="0.5" d="M2621.5 411.499L2225.06 909.248C2206.07 933.099 2177.23 946.98 2146.74 946.947L1168.62 945.916C1142.5 945.889 1117.42 935.643 1098.76 917.369L954.434 776.058C935.21 757.236 924.381 731.461 924.394 704.557L924.499 483.501" stroke="#008392" stroke-width="2" stroke-linecap="round" stroke-dasharray="6 8"/>
<path opacity="0.5" d="M4947.5 510.925H4747.97C4716.69 510.925 4687.22 496.294 4668.31 471.383L4526.36 284.359C4507.45 259.447 4477.98 244.816 4446.71 244.816L3393.14 244.817C3374.11 244.817 3355.47 250.248 3339.42 260.472L3069.58 432.344C3053.53 442.569 3034.89 448 3015.86 448H2715L2677.82 449.446C2648.59 450.583 2621.32 464.466 2603.19 487.437L2248.02 937.692C2229.06 961.723 2200.14 975.749 2169.54 975.759L1526.25 975.961L1136.99 975.959C1110.5 975.959 1085.1 965.45 1066.35 946.74L915.604 796.296C896.737 777.466 886.168 751.882 886.245 725.226L886.586 607.117C886.745 551.776 841.927 506.828 786.586 506.828H662H-843.608C-876.697 506.828 -907.645 490.459 -926.267 463.107L-928.233 460.221C-946.855 432.869 -977.803 416.5 -1010.89 416.5H-1196.5" stroke="#008392" stroke-width="2" stroke-linecap="round" stroke-dasharray="6 8"/>
<circle cx="867" cy="618" r="7" fill="#00464F" stroke="#008392" stroke-width="2"/>
<circle cx="867" cy="706" r="7" fill="#00464F" stroke="#008392" stroke-width="2"/>
<circle cx="898" cy="807" r="7" fill="#00464F" stroke="#008392" stroke-width="2"/>
<circle cx="1258" cy="13" r="7" fill="#00464F" stroke="#008392" stroke-width="2"/>
<circle cx="1117" cy="471" r="7" fill="#00464F" stroke="#008392" stroke-width="2"/>
<circle cx="721" cy="364" r="7" fill="#00464F" stroke="#008392" stroke-width="2"/>
<circle cx="697" cy="364" r="7" fill="#00464F" stroke="#008392" stroke-width="2"/>
<circle cx="628" cy="435" r="7" fill="#00464F" stroke="#008392" stroke-width="2"/>
<circle cx="275" cy="435" r="7" fill="#00464F" stroke="#008392" stroke-width="2"/>
<circle cx="89" cy="635" r="7" fill="#00464F" stroke="#008392" stroke-width="2"/>
<circle cx="54" cy="706" r="7" fill="#00464F" stroke="#008392" stroke-width="2"/>
<circle cx="689" cy="470" r="7" fill="#00464F" stroke="#008392" stroke-width="2"/>
<circle cx="536" cy="470" r="7" fill="#00464F" stroke="#008392" stroke-width="2"/>
<circle cx="493" cy="470" r="7" fill="#00464F" stroke="#008392" stroke-width="2"/>
<circle cx="464" cy="470" r="7" fill="#00464F" stroke="#008392" stroke-width="2"/>
<circle cx="652" cy="364" r="7" fill="#00464F" stroke="#008392" stroke-width="2"/>
<circle cx="563" cy="364" r="7" fill="#00464F" stroke="#008392" stroke-width="2"/>
<circle cx="441" cy="364" r="7" fill="#00464F" stroke="#008392" stroke-width="2"/>
<circle cx="141" cy="104" r="7" fill="#00464F" stroke="#008392" stroke-width="2"/>
<circle cx="1249" cy="435" r="7" fill="#00464F" stroke="#008392" stroke-width="2"/>
<circle cx="1193" cy="471" r="7" fill="#00464F" stroke="#008392" stroke-width="2"/>
<circle cx="1059" cy="529" r="7" fill="#00464F" stroke="#008392" stroke-width="2"/>
<circle cx="1067" cy="293" r="7" fill="#00464F" stroke="#008392" stroke-width="2"/>
<circle cx="1138" cy="435" r="7" fill="#00464F" stroke="#008392" stroke-width="2"/>
<circle cx="1218" cy="435" r="7" fill="#00464F" stroke="#008392" stroke-width="2"/>
<circle cx="1090" cy="471" r="7" fill="#00464F" stroke="#008392" stroke-width="2"/>
<circle cx="1029" cy="293" r="7" fill="#00464F" stroke="#008392" stroke-width="2"/>
<circle cx="1134" cy="267" r="7" fill="#00464F" stroke="#008392" stroke-width="2"/>
<circle cx="1204" cy="132" r="7" fill="#00464F" stroke="#008392" stroke-width="2"/>
<circle cx="1218" cy="589" r="7" fill="#00464F" stroke="#008392" stroke-width="2"/>
<circle cx="1118" cy="529" r="7" fill="#00464F" stroke="#008392" stroke-width="2"/>
<path d="M1272.5 638.5C1248.21 638.5 1228.5 658.637 1228.5 683.5C1228.5 708.363 1248.21 728.5 1272.5 728.5C1296.79 728.5 1316.5 708.363 1316.5 683.5C1316.5 658.637 1296.79 638.5 1272.5 638.5Z" fill="#66CCCC" stroke="#008392"/>
<path d="M532.303 583C561.741 583 585.605 606.865 585.605 636.303C585.605 665.741 561.741 689.605 532.303 689.605C502.865 689.605 479 665.741 479 636.303C479 606.865 502.865 583 532.303 583Z" fill="#006B78" stroke="#008392" stroke-width="2"/>
<circle cx="896.5" cy="429.501" r="131.837" fill="#33B8B8"/>
<circle cx="896.5" cy="429.502" r="106.873" fill="#008392"/>
<circle cx="896.499" cy="429.499" r="82.6904" fill="#005660"/>
<circle cx="896.114" cy="429.891" r="54.6566" fill="white" stroke="#002C32" stroke-width="4"/>
<path d="M998.551 531.553C978.368 551.737 952.652 565.482 924.656 571.051C896.66 576.619 867.642 573.761 841.27 562.838C814.899 551.914 792.359 533.416 776.5 509.683C760.642 485.949 752.178 458.046 752.178 429.501C752.178 400.957 760.642 373.054 776.5 349.32C792.359 325.586 814.899 307.088 841.27 296.165C867.642 285.241 896.66 282.383 924.656 287.952C952.652 293.521 978.368 307.266 998.551 327.45" stroke="#33B8B8" stroke-linecap="round"/>
<path d="M782.19 398.873C788.248 376.264 800.874 355.96 818.472 340.527C836.069 325.095 857.848 315.227 881.053 312.172C904.259 309.117 927.85 313.011 948.842 323.364C969.834 333.716 987.285 350.06 998.988 370.331C1010.69 390.601 1016.12 413.886 1014.59 437.242C1013.06 460.598 1004.64 482.975 990.388 501.544C976.139 520.114 956.704 534.04 934.54 541.564C912.376 549.088 888.479 549.87 865.871 543.812" stroke="#33B8B8" stroke-linecap="round"/>
<path d="M943.444 348.193C962.492 359.191 977.075 376.527 984.648 397.178C992.22 417.829 992.302 440.482 984.879 461.187C977.456 481.892 963 499.334 944.031 510.469C925.063 521.604 902.787 525.726 881.09 522.116C859.393 518.506 839.652 507.392 825.312 490.715C810.971 474.037 802.941 452.854 802.623 430.861C802.305 408.868 809.718 387.461 823.57 370.376C837.421 353.29 856.832 341.61 878.416 337.373" stroke="#33B8B8" stroke-linecap="round"/>
<circle cx="961.248" cy="497.365" r="7.02088" fill="#33B8B8"/>
<circle cx="916.002" cy="545.734" r="5.46069" fill="#33B8B8"/>
<circle cx="823.171" cy="486.445" r="5.46069" fill="#0FA3A3"/>
<circle cx="877.831" cy="337.168" r="5.46069" fill="#0FA3A3"/>
<circle cx="897.28" cy="215.749" r="10.9214" fill="#0FA3A3"/>
<circle cx="866.076" cy="640.904" r="7.02088" fill="#33B8B8"/>
<circle cx="1094.02" cy="560.978" r="7.02088" fill="#0FA3A3"/>
<path d="M903.313 403.323C903.318 401.497 902.943 392.453 903.657 391.541C903.932 391.191 904.409 391.035 904.832 391.013C905.254 390.991 905.608 391.176 905.892 391.48C906.124 391.729 906.198 391.952 906.24 392.283C906.396 393.527 906.302 394.867 906.298 396.122L906.271 403.327L911.898 403.314C915.324 403.311 919.147 403.182 921.74 405.908C924.377 408.68 924.307 411.821 924.307 415.343L924.297 420.354C925.852 420.348 932.77 419.964 933.584 420.781C933.863 421.061 933.958 421.463 933.965 421.847C933.974 422.255 933.867 422.541 933.571 422.822C933.35 423.033 933.111 423.16 932.812 423.217C930.98 423.57 926.4 423.287 924.304 423.292L924.293 435.529C926.117 435.55 932.457 434.982 933.635 436.142C933.906 436.409 934.003 436.685 934 437.068C933.996 437.444 933.79 437.813 933.529 438.068C933.317 438.276 933.1 438.382 932.812 438.434C930.967 438.767 926.447 438.491 924.304 438.495L924.305 444.468C924.307 448.094 924.538 451.783 921.727 454.607C919.046 457.301 915.387 457.165 911.923 457.17L906.578 457.172C906.529 460.217 906.726 463.868 906.495 466.934C906.482 467.115 906.221 467.481 906.118 467.631C903.001 469.256 903.568 465.093 903.572 463.363L903.597 457.168L889.835 457.172C889.828 459.652 889.84 462.124 889.861 464.609C889.813 465.681 890.163 467.627 888.694 467.9C886.24 468.355 886.808 464.841 886.817 463.246L886.853 457.173C886.079 457.165 885.301 457.184 884.522 457.172C878.772 457.087 871.7 458.289 869.348 451.317C868.521 448.864 868.711 446.821 868.713 444.303L868.726 438.479C867.044 438.494 860.515 438.753 859.857 438.167C855.699 434.46 867.982 435.527 868.717 435.524L868.722 423.239C866.359 423.383 862.374 423.5 859.987 423.018C858.824 422.783 858.862 420.528 860.166 420.433C862.969 420.229 865.886 420.338 868.715 420.353C868.807 409.315 867.786 403.31 881.089 403.312L886.906 403.323C886.92 400.943 886.916 398.563 886.893 396.183C886.887 394.884 886.827 393.377 887.007 392.096C887.086 391.532 887.512 391.308 887.969 391C890.62 391.086 889.955 393.531 889.959 395.695L889.948 403.341L903.313 403.323Z" fill="#005660"/>
<path d="M889.474 419.009C891.159 418.996 892.843 418.997 894.527 419.014C895.471 421.233 896.434 423.921 897.32 426.191C899.252 431.099 901.146 436.021 903 440.956C901.338 441.018 899.679 440.999 898.016 440.991C897.408 439.41 896.84 437.757 896.269 436.159L894.577 436.146L887.729 436.148C887.106 437.698 886.523 439.401 885.953 440.981C884.302 440.991 882.651 440.986 881 440.968C883.409 434.333 886.184 427.78 888.597 421.14C888.857 420.424 889.138 419.697 889.474 419.009Z" fill="white"/>
<path d="M891.464 424C891.882 424.757 893.661 431.705 894 432.993L891.397 433L889 432.994C889.757 430.011 890.64 426.965 891.464 424Z" fill="#005660"/>
<path d="M905.064 419.029C906.685 418.992 908.306 418.99 909.926 419.025C909.945 426.207 910.095 433.847 909.905 440.988C908.29 441.005 906.673 441.004 905.058 440.986C904.938 433.766 905.038 426.269 905.064 419.029Z" fill="white"/>
</g>
<defs>
<clipPath id="clip0_554_20782">
<rect width="3360" height="1454" fill="white" transform="translate(-302 -362)"/>
</clipPath>
</defs>
</svg>
