<svg width="1270" height="701" viewBox="0 0 1270 701" fill="none" xmlns="http://www.w3.org/2000/svg">
<path d="M1014 29H894.513C851.248 29 812.89 56.8232 799.456 97.9498L717.612 348.509C704.178 389.636 665.819 417.459 622.554 417.459H-147.969C-175.583 417.459 -197.969 439.845 -197.969 467.459V496.767C-197.969 524.381 -220.355 546.767 -247.969 546.767H-389.884H-480.539C-490.078 546.767 -499.418 544.038 -507.457 538.903L-589.015 486.802C-597.054 481.667 -606.394 478.938 -615.932 478.938H-812.84C-840.443 478.938 -862.824 501.307 -862.84 528.911L-863.262 1290.03C-863.277 1317.63 -885.658 1340 -913.262 1340H-1794.55C-1798.29 1340 -1801.32 1336.97 -1801.32 1333.22C-1801.32 1329.48 -1798.29 1326.44 -1794.55 1326.44H-929.711C-902.097 1326.44 -879.711 1304.06 -879.711 1276.44V625.073C-879.711 597.459 -902.097 575.073 -929.711 575.073H-1642.67H-1783.68C-1832.32 575.073 -1873.9 540.074 -1882.21 492.148L-1922.73 258.322C-1931.03 210.396 -1972.62 175.397 -2021.26 175.397H-2176" stroke="#5F7FA3" stroke-width="2" stroke-linecap="round"/>
<path opacity="0.5" d="M1122 108H888.944C846.929 108 809.395 134.262 794.998 173.733L725.837 363.347C711.434 402.835 673.875 429.101 631.842 429.08L-139.898 428.701C-167.522 428.687 -189.923 451.077 -189.923 478.701V507.146C-189.923 534.76 -212.309 557.146 -239.923 557.146H-391.068L-484.653 557.146C-492.322 557.146 -499.889 555.381 -506.768 551.989L-592.014 509.948C-598.893 506.556 -606.459 504.791 -614.129 504.791L-797.574 504.791C-825.179 504.791 -847.56 527.162 -847.574 554.767L-847.942 1303.02C-847.956 1330.63 -870.338 1353 -897.942 1353H-1800.93C-1812.14 1353 -1821.24 1343.91 -1821.24 1332.69C-1821.24 1321.47 -1812.14 1312.38 -1800.93 1312.38H-947.224C-919.61 1312.38 -897.224 1289.99 -897.224 1262.38V636.427C-897.224 608.787 -919.65 586.39 -947.29 586.427L-1643.62 587.339L-1932.73 588.17C-1965.12 588.263 -1995.55 572.662 -2014.38 546.309L-2151.82 353.972C-2170.59 327.702 -2200.9 312.111 -2233.18 312.111H-2409" stroke="#5F7FA3" stroke-width="2" stroke-linecap="round" stroke-dasharray="6 8"/>
<path opacity="0.5" d="M939 486.072H827.916C822.604 486.072 817.301 485.648 812.056 484.806L722.831 470.473C717.594 469.632 712.299 469.208 706.995 469.207L-102.346 469.012C-129.965 469.005 -152.358 491.393 -152.358 519.012V545.425C-152.358 573.039 -174.744 595.425 -202.358 595.425H-390.68L-495.973 595.425L-602.182 604.676L-731.92 604.676C-759.53 604.676 -781.914 627.055 -781.92 654.665L-782.077 1360.01C-782.083 1387.62 -804.467 1410 -832.077 1410H-1822.66C-1864 1410 -1897.52 1376.48 -1897.52 1335.13C-1897.52 1293.79 -1864 1260.27 -1822.66 1260.27H-1012.78C-985.169 1260.27 -962.784 1237.88 -962.784 1210.27V678.553C-962.784 650.954 -985.146 628.574 -1012.75 628.553L-1643.83 628.077L-2288.44 627.607C-2325.58 627.58 -2359.67 648.138 -2376.98 680.996L-2434.85 790.83C-2452.15 823.665 -2486.21 844.218 -2523.32 844.218H-2658" stroke="#5F7FA3" stroke-width="2" stroke-linecap="round" stroke-dasharray="6 8"/>
<path opacity="0.5" d="M970 225H878.872C841.522 225 807.285 245.814 790.094 278.973L735.12 385.007C717.922 418.179 683.664 438.996 646.299 438.98L-130.876 438.644C-158.499 438.632 -180.898 461.021 -180.898 488.644V516.707C-180.898 544.321 -203.283 566.707 -230.898 566.707H-391.17L-487.865 566.707C-493.478 566.707 -499.051 565.762 -504.35 563.911L-594.428 532.453C-599.727 530.602 -605.3 529.657 -610.913 529.657L-781.024 529.657C-808.63 529.657 -831.012 552.03 -831.024 579.636L-831.339 1318.02C-831.351 1345.63 -853.734 1368 -881.339 1368L-1805.45 1368C-1824.19 1368 -1839.38 1352.81 -1839.38 1334.07C-1839.38 1315.33 -1824.19 1300.14 -1805.45 1300.14L-963.402 1300.14C-935.788 1300.14 -913.402 1277.76 -913.402 1250.14V646.979C-913.402 619.348 -935.815 596.955 -963.446 596.979L-1642.9 597.577H-2192.37C-2217.57 597.577 -2241.84 588.062 -2260.33 570.936L-2429.62 414.098C-2448.11 396.972 -2472.38 387.457 -2497.58 387.457H-2648" stroke="#5F7FA3" stroke-width="2" stroke-linecap="round" stroke-dasharray="6 8"/>
<path opacity="0.5" d="M1142 274H876.392C841.233 274 808.656 292.465 790.595 322.631L743.902 400.618C725.834 430.796 693.241 449.262 658.068 449.249L-120.772 448.968C-148.394 448.958 -170.79 471.347 -170.79 498.968V526.456C-170.79 554.07 -193.176 576.456 -220.79 576.456H-390.498L-490.712 576.456C-494.066 576.456 -497.412 576.118 -500.699 575.449L-596.987 555.821C-600.274 555.151 -603.619 554.814 -606.974 554.814L-764.337 554.814C-791.944 554.814 -814.327 577.188 -814.337 604.796L-814.599 1332.02C-814.609 1359.63 -836.992 1382 -864.599 1382L-1811.31 1382C-1837.57 1382 -1858.85 1360.72 -1858.85 1334.46C-1858.85 1308.21 -1837.57 1286.92 -1811.31 1286.92L-979.567 1286.92C-951.952 1286.92 -929.567 1264.54 -929.567 1236.92V657.675C-929.567 630.053 -951.965 607.664 -979.587 607.675L-1643.22 607.937L-2479.12 607.086C-2505.9 607.059 -2531.56 596.29 -2550.33 577.192L-2664.28 461.286C-2683.08 442.163 -2708.77 431.392 -2735.59 431.392H-2953" stroke="#5F7FA3" stroke-width="2" stroke-linecap="round" stroke-dasharray="6 8"/>
<path d="M1014 385H852.218C830.002 385 808.419 392.397 790.875 406.025L746.265 440.675C728.713 454.309 707.119 461.706 684.893 461.7L-112.506 461.47C-140.126 461.462 -162.521 483.85 -162.521 511.47V538.221C-162.521 565.836 -184.906 588.221 -212.521 588.221H-391.315L-496.491 588.222L-602.581 582.019L-748.47 582.019C-776.078 582.019 -798.461 604.396 -798.469 632.004L-798.679 1347.01C-798.687 1374.62 -821.07 1397 -848.679 1397H-1816.4C-1850.14 1397 -1877.49 1369.65 -1877.49 1335.91C-1877.49 1302.17 -1850.14 1274.82 -1816.4 1274.82H-996.369C-968.755 1274.82 -946.369 1252.43 -946.369 1224.82V670.342C-946.369 642.732 -968.749 620.348 -996.359 620.342L-1643.06 620.208H-2047.98C-2074.3 620.208 -2099.56 609.83 -2118.28 591.325L-2146.73 563.202C-2165.45 544.697 -2190.71 534.319 -2217.03 534.319H-3121" stroke="#5F7FA3" stroke-width="2" stroke-linecap="round"/>
<path d="M1102 560.303H850.882C830.28 560.303 810.181 553.94 793.333 542.084L734.008 500.337C717.164 488.484 697.071 482.122 676.474 482.119L-93.9811 482.007C-121.598 482.003 -143.988 504.39 -143.988 532.007V557.085C-143.988 584.699 -166.374 607.085 -193.988 607.085H-391.629L-491.231 607.085C-495.027 607.085 -498.81 607.517 -502.508 608.373L-597.608 630.388C-601.306 631.244 -605.089 631.677 -608.885 631.677L-716.572 631.677C-744.183 631.677 -766.568 654.058 -766.572 681.669L-766.676 1371.01C-766.68 1398.62 -789.065 1421 -816.676 1421H-1829.75C-1878.36 1421 -1917.77 1381.59 -1917.77 1332.99C-1917.77 1284.38 -1878.36 1244.97 -1829.75 1244.97H-1030.27C-1002.66 1244.97 -980.275 1222.59 -980.275 1194.97V690.959C-980.275 663.369 -1002.62 640.993 -1030.21 640.959L-1645.02 640.192L-1883.96 640.85C-1921.96 640.955 -1956.62 662.59 -1973.41 696.684L-2033.3 818.346C-2050.12 852.529 -2084.91 874.18 -2123.01 874.18H-2236" stroke="#5F7FA3" stroke-width="2" stroke-linecap="round"/>
<path opacity="0.5" d="M950 604.802H859.708C834.001 604.802 809.281 594.902 790.681 577.157L731.527 520.723C712.929 502.98 688.213 493.08 662.509 493.078L-83.4664 493.005C-111.083 493.002 -133.471 515.389 -133.471 543.005V567.417C-133.471 595.031 -155.857 617.417 -183.471 617.417H-390.166L-486.286 617.417C-492.306 617.417 -498.277 618.504 -503.911 620.627L-593.01 654.19C-598.644 656.313 -604.615 657.4 -610.636 657.4L-698.43 657.4C-726.043 657.4 -748.428 679.784 -748.43 707.396L-748.482 1385C-748.485 1412.62 -770.87 1435 -798.482 1435L-1832.43 1435C-1888.52 1435 -1934 1389.53 -1934 1333.44C-1934 1277.35 -1888.52 1231.88 -1832.43 1231.88L-1044.73 1231.88C-1017.11 1231.88 -994.728 1209.49 -994.728 1181.88V702.214C-994.728 674.633 -1017.06 652.261 -1044.64 652.214L-1642.49 651.189H-2032.04C-2070.48 651.189 -2105.22 674.112 -2120.34 709.455C-2135.45 744.798 -2170.19 767.721 -2208.63 767.721H-2491" stroke="#5F7FA3" stroke-width="2" stroke-linecap="round" stroke-dasharray="6 8"/>
<path opacity="0.5" d="M970 665.901H867.656C836.418 665.901 806.975 651.303 788.063 626.44L724.947 543.46C706.036 518.597 676.592 504 645.355 504L-75.327 504C-102.941 504 -125.327 526.386 -125.327 554V577.617C-125.327 605.231 -147.713 627.617 -175.327 627.617H-391.156L-484.077 627.617C-492.126 627.617 -500.057 629.561 -507.194 633.283L-591.553 677.271C-598.69 680.992 -606.621 682.936 -614.671 682.936L-682.893 682.936C-710.508 682.936 -732.893 705.322 -732.893 732.936V1398C-732.893 1425.61 -755.279 1448 -782.893 1448H-1838.22C-1901.73 1448 -1953.21 1396.52 -1953.21 1333.01C-1953.21 1269.5 -1901.73 1218.02 -1838.22 1218.02H-1061.83C-1034.22 1218.02 -1011.83 1195.64 -1011.83 1168.02V713.408C-1011.83 685.794 -1034.22 663.408 -1061.83 663.408H-1642.87H-2559.83C-2580.64 663.408 -2600.11 653.123 -2611.84 635.93C-2623.57 618.738 -2643.04 608.453 -2663.85 608.453H-2776" stroke="#5F7FA3" stroke-width="2" stroke-linecap="round" stroke-dasharray="6 8"/>
<circle cx="40" cy="40" r="39.5" transform="matrix(-1 0 0 1 1162 64)" fill="#8AA3BC" stroke="#5F7FA3"/>
<circle cx="59.5" cy="59.5" r="60.5" transform="matrix(-1 0 0 1 1153 501)" fill="#3F5F85" stroke="#5F7FA3" stroke-width="2"/>
<circle cx="24" cy="24" r="23.5" transform="matrix(-1 0 0 1 1004 201)" fill="#0C131A" stroke="#5F7FA3"/>
<circle cx="21" cy="21" r="20.5" transform="matrix(-1 0 0 1 1010 644)" fill="#3F5F85" stroke="#5F7FA3"/>
<path d="M934.5 464.5C922.389 464.5 912.5 475.204 912.5 488.5C912.5 501.796 922.389 512.5 934.5 512.5C946.611 512.5 956.5 501.796 956.5 488.5C956.5 475.204 946.611 464.5 934.5 464.5Z" fill="#B3C2D3" stroke="#5F7FA3"/>
<circle cx="63.5" cy="63.5" r="63" transform="matrix(-1 0 0 1 1198 210)" fill="#15202D" stroke="#5F7FA3"/>
<path d="M1016.74 1C1032.01 1 1044.4 13.386 1044.4 28.665C1044.4 43.9442 1032.01 56.3311 1016.74 56.3311C1001.46 56.3308 989.07 43.9441 989.07 28.665C989.071 13.3862 1001.46 1.00021 1016.74 1Z" fill="#3F5F85" stroke="#5F7FA3" stroke-width="2"/>
<path d="M942.784 586C952.604 586 960.565 593.961 960.565 603.781C960.565 613.602 952.604 621.562 942.784 621.562C932.963 621.562 925.002 613.602 925.002 603.781C925.002 593.961 932.963 586 942.784 586Z" fill="#0C131A" stroke="#5F7FA3" stroke-width="2"/>
<path d="M1014.04 355.543C1032.22 355.543 1046.96 370.281 1046.96 388.46C1046.96 406.639 1032.22 421.376 1014.04 421.376C995.863 421.376 981.125 406.639 981.125 388.46C981.125 370.281 995.863 355.543 1014.04 355.543Z" fill="#1E2C40" stroke="#5F7FA3" stroke-width="2"/>
<circle cx="473" cy="417" r="4.5" fill="#15202D" stroke="#5F7FA3"/>
<circle cx="913" cy="29" r="4.5" fill="#15202D" stroke="#5F7FA3"/>
<circle cx="926" cy="29" r="4.5" fill="#15202D" stroke="#5F7FA3"/>
<circle cx="891" cy="29" r="4.5" fill="#15202D" stroke="#5F7FA3"/>
<circle cx="855" cy="36" r="4.5" fill="#15202D" stroke="#5F7FA3"/>
<circle cx="827" cy="56" r="4.5" fill="#15202D" stroke="#5F7FA3"/>
<circle cx="460" cy="417" r="4.5" fill="#15202D" stroke="#5F7FA3"/>
<circle cx="440" cy="417" r="4.5" fill="#15202D" stroke="#5F7FA3"/>
<circle cx="407" cy="417" r="4.5" fill="#15202D" stroke="#5F7FA3"/>
<circle cx="351" cy="417" r="4.5" fill="#15202D" stroke="#5F7FA3"/>
<path d="M26.5 415.5C27.9642 415.5 29.266 415.771 30.1826 416.188C31.1441 416.625 31.5 417.126 31.5 417.5C31.5 417.874 31.1441 418.375 30.1826 418.812C29.266 419.229 27.9642 419.5 26.5 419.5C25.0358 419.5 23.734 419.229 22.8174 418.812C21.8559 418.375 21.5 417.874 21.5 417.5C21.5 417.126 21.8559 416.625 22.8174 416.188C23.734 415.771 25.0358 415.5 26.5 415.5Z" fill="#15202D" stroke="#5F7FA3"/>
<circle cx="121.5" cy="460.5" r="3" fill="#15202D" stroke="#5F7FA3"/>
<path d="M93.5 457.5C94.9384 457.5 96.2176 457.872 97.1211 458.447C98.0303 459.026 98.5 459.764 98.5 460.5C98.5 461.236 98.0303 461.974 97.1211 462.553C96.2176 463.128 94.9384 463.5 93.5 463.5C92.0616 463.5 90.7824 463.128 89.8789 462.553C88.9697 461.974 88.5 461.236 88.5 460.5C88.5 459.764 88.9697 459.026 89.8789 458.447C90.7824 457.872 92.0616 457.5 93.5 457.5Z" fill="#15202D" stroke="#5F7FA3"/>
<path d="M46.5 457.5C47.9384 457.5 49.2176 457.872 50.1211 458.447C51.0303 459.026 51.5 459.764 51.5 460.5C51.5 461.236 51.0303 461.974 50.1211 462.553C49.2176 463.128 47.9384 463.5 46.5 463.5C45.0616 463.5 43.7824 463.128 42.8789 462.553C41.9697 461.974 41.5 461.236 41.5 460.5C41.5 459.764 41.9697 459.026 42.8789 458.447C43.7824 457.872 45.0616 457.5 46.5 457.5Z" fill="#15202D" stroke="#5F7FA3"/>
<path d="M137.5 457.5C138.938 457.5 140.218 457.872 141.121 458.447C142.03 459.026 142.5 459.764 142.5 460.5C142.5 461.236 142.03 461.974 141.121 462.553C140.218 463.128 138.938 463.5 137.5 463.5C136.062 463.5 134.782 463.128 133.879 462.553C132.97 461.974 132.5 461.236 132.5 460.5C132.5 459.764 132.97 459.026 133.879 458.447C134.782 457.872 136.062 457.5 137.5 457.5Z" fill="#15202D" stroke="#5F7FA3"/>
<path d="M952.5 380.5C954.833 380.5 956.5 381.953 956.5 383.5C956.5 385.047 954.833 386.5 952.5 386.5C950.167 386.5 948.5 385.047 948.5 383.5C948.5 381.953 950.167 380.5 952.5 380.5Z" fill="#15202D" stroke="#5F7FA3"/>
<path d="M930 380.5C931.998 380.5 933.5 381.904 933.5 383.5C933.5 385.096 931.998 386.5 930 386.5C928.002 386.5 926.5 385.096 926.5 383.5C926.5 381.904 928.002 380.5 930 380.5Z" fill="#15202D" stroke="#5F7FA3"/>
<path d="M890 380.5C891.872 380.5 893.543 380.881 894.727 381.473C895.94 382.079 896.5 382.825 896.5 383.5C896.5 384.175 895.94 384.921 894.727 385.527C893.543 386.119 891.872 386.5 890 386.5C888.128 386.5 886.457 386.119 885.273 385.527C884.06 384.921 883.5 384.175 883.5 383.5C883.5 382.825 884.06 382.079 885.273 381.473C886.457 380.881 888.128 380.5 890 380.5Z" fill="#15202D" stroke="#5F7FA3"/>
<circle cx="835" cy="559" r="4.5" fill="#15202D" stroke="#5F7FA3"/>
<circle cx="813" cy="553" r="4.5" fill="#15202D" stroke="#5F7FA3"/>
<circle cx="787" cy="538" r="4.5" fill="#15202D" stroke="#5F7FA3"/>
<circle cx="749" cy="511" r="4.5" fill="#15202D" stroke="#5F7FA3"/>
<circle cx="711" cy="487" r="4.5" fill="#15202D" stroke="#5F7FA3"/>
<circle cx="389" cy="482" r="4.5" fill="#15202D" stroke="#5F7FA3"/>
<circle cx="367" cy="482" r="4.5" fill="#15202D" stroke="#5F7FA3"/>
<circle cx="347" cy="482" r="4.5" fill="#15202D" stroke="#5F7FA3"/>
<path d="M12.5 415.5C14.2496 415.5 15.8113 415.774 16.917 416.199C17.471 416.412 17.8852 416.654 18.1523 416.896C18.4193 417.139 18.5 417.344 18.5 417.5C18.5 417.656 18.4193 417.861 18.1523 418.104C17.8852 418.346 17.471 418.588 16.917 418.801C15.8113 419.226 14.2496 419.5 12.5 419.5C10.7504 419.5 9.18872 419.226 8.08301 418.801C7.52895 418.588 7.11475 418.346 6.84766 418.104C6.58066 417.861 6.5 417.656 6.5 417.5C6.5 417.344 6.58066 417.139 6.84766 416.896C7.11475 416.654 7.52895 416.412 8.08301 416.199C9.18872 415.774 10.7504 415.5 12.5 415.5Z" fill="#15202D" stroke="#5F7FA3"/>
<circle cx="952.5" cy="388.501" r="131.837" fill="#5F7FA3"/>
<circle cx="952.5" cy="388.502" r="106.873" fill="#24354E"/>
<circle cx="952.5" cy="388.499" r="82.6904" fill="#192535"/>
<circle cx="952.114" cy="388.891" r="54.6566" fill="white" stroke="#0C131A" stroke-width="4"/>
<path d="M1054.55 490.553C1034.37 510.737 1008.65 524.482 980.656 530.051C952.66 535.619 923.642 532.761 897.27 521.838C870.899 510.914 848.358 492.416 832.5 468.683C816.642 444.949 808.177 417.046 808.177 388.501C808.177 359.957 816.642 332.054 832.5 308.32C848.358 284.586 870.899 266.088 897.27 255.165C923.642 244.241 952.66 241.383 980.656 246.952C1008.65 252.521 1034.37 266.266 1054.55 286.45" stroke="#5F7FA3" stroke-linecap="round"/>
<path d="M838.19 357.873C844.248 335.264 856.874 314.96 874.471 299.527C892.069 284.095 913.848 274.227 937.053 271.172C960.259 268.117 983.85 272.011 1004.84 282.364C1025.83 292.716 1043.28 309.06 1054.99 329.331C1066.69 349.601 1072.12 372.886 1070.59 396.242C1069.06 419.598 1060.64 441.975 1046.39 460.544C1032.14 479.114 1012.7 493.04 990.54 500.564C968.376 508.088 944.479 508.87 921.871 502.812" stroke="#5F7FA3" stroke-linecap="round"/>
<path d="M999.444 307.193C1018.49 318.191 1033.07 335.527 1040.65 356.178C1048.22 376.829 1048.3 399.482 1040.88 420.187C1033.46 440.892 1019 458.334 1000.03 469.469C981.063 480.604 958.787 484.726 937.09 481.116C915.393 477.506 895.652 466.392 881.312 449.715C866.971 433.037 858.941 411.854 858.623 389.861C858.304 367.868 865.718 346.461 879.569 329.376C893.421 312.29 912.832 300.61 934.415 296.373" stroke="#5F7FA3" stroke-linecap="round"/>
<circle cx="1017.25" cy="456.365" r="7.02088" fill="#5F7FA3"/>
<circle cx="972.002" cy="504.734" r="5.46069" fill="#5F7FA3"/>
<circle cx="879.171" cy="445.445" r="5.46069" fill="#3F5F85"/>
<circle cx="933.831" cy="296.168" r="5.46069" fill="#3F5F85"/>
<circle cx="953.28" cy="174.749" r="10.9214" fill="#3F5F85"/>
<path d="M964.718 386.1H956.443C955.301 386.1 954.375 387.026 954.375 388.168V421.543H966.787V388.168C966.787 387.026 965.86 386.1 964.718 386.1ZM948.168 394.374H939.894C938.751 394.374 937.825 395.3 937.825 396.443V421.543H950.237V396.443C950.237 395.3 949.311 394.374 948.168 394.374ZM931.619 402.649H923.344C922.202 402.649 921.276 403.575 921.276 404.718V421.543H933.688V404.718C933.688 403.575 932.761 402.649 931.619 402.649ZM981.267 377.825H972.993C971.85 377.825 970.924 378.751 970.924 379.893V421.543H983.336V379.893C983.336 378.751 982.41 377.825 981.267 377.825ZM987.394 357.665C987.141 357.158 986.691 356.777 986.149 356.61L974.667 353.091C973.574 352.757 972.417 353.371 972.083 354.463C971.748 355.555 972.362 356.712 973.454 357.047L979.653 358.947L918.228 386.278C917.184 386.743 916.715 387.965 917.179 389.009C917.522 389.78 918.278 390.238 919.07 390.238C919.351 390.238 919.637 390.18 919.91 390.058L981.939 362.458L979.504 369.173C979.115 370.247 979.67 371.433 980.744 371.823C981.813 372.211 983.003 371.662 983.394 370.583L987.488 359.294C987.681 358.761 987.647 358.172 987.394 357.665Z" fill="#24354E"/>
<path d="M985.542 419.473H919.069C917.926 419.473 917 420.399 917 421.541C917 422.684 917.926 423.61 919.069 423.61H985.542C986.685 423.61 987.611 422.684 987.611 421.541C987.611 420.399 986.685 419.473 985.542 419.473Z" fill="#8AA3BC"/>
</svg>
