<svg width="1280" height="800" viewBox="0 0 1280 800" fill="none" xmlns="http://www.w3.org/2000/svg">
<g clip-path="url(#clip0_554_19436)">
<path d="M3373.62 -498.602H3131.49C3088.22 -498.602 3049.86 -470.767 3036.43 -429.629L2873.51 69.5288C2860.09 110.667 2821.72 138.501 2778.45 138.501H1615.61C1605.76 138.501 1596.13 141.41 1587.92 146.863L1294.08 342.215C1285.88 347.668 1276.25 350.577 1266.4 350.577H1073L910.051 334.918C903.743 334.311 897.607 332.511 891.971 329.613L798.526 281.567C784.381 274.294 768.705 270.5 752.799 270.5H628.373C589.168 270.5 553.58 247.59 537.347 211.903L377.653 -139.189C361.421 -174.876 325.832 -197.786 286.627 -197.786H-210.229C-249.637 -197.786 -285.371 -174.64 -301.486 -138.677L-483.218 266.892C-499.333 302.856 -535.067 326.001 -574.475 326.001H-665.353C-678.23 326.001 -690.987 328.488 -702.921 333.326L-850.963 393.338C-856.93 395.757 -863.308 397.001 -869.747 397.001H-1291.65C-1327.17 397.001 -1360.02 378.158 -1377.96 347.499L-1703.54 -208.997C-1721.47 -239.656 -1754.33 -258.499 -1789.85 -258.499H-1932.5" stroke="#F0912A" stroke-width="2" stroke-linecap="round"/>
<path opacity="0.5" d="M3553 -370.68H3126.34C3084.3 -370.68 3046.75 -344.39 3032.37 -304.89L2888.31 90.8025C2873.93 130.323 2836.35 156.617 2794.29 156.593L1630.74 155.922C1620.92 155.916 1611.32 158.801 1603.13 164.217L1309.23 358.582C1301.05 363.992 1291.46 366.877 1281.65 366.877H1073L911.09 359.097C904.108 358.762 897.273 356.966 891.028 353.825L798.198 307.146C784.259 300.138 768.874 296.487 753.273 296.487L609.307 296.487C570.264 296.487 534.791 273.765 518.467 238.298L355.533 -115.705C339.209 -151.172 303.736 -173.895 264.693 -173.895H-194.387C-233.843 -173.895 -269.61 -150.695 -285.697 -114.669L-464.422 285.57C-480.478 321.525 -516.138 344.71 -555.514 344.796L-656.85 345.016C-669.114 345.043 -681.269 347.326 -692.707 351.75L-851.353 413.114C-857.069 415.325 -863.143 416.466 -869.272 416.48L-1486.84 417.943C-1519.25 418.02 -1549.68 402.391 -1568.5 376.01L-1832.09 6.43089C-1850.86 -19.8818 -1881.19 -35.502 -1913.51 -35.502H-2234.5" stroke="#F0912A" stroke-width="2" stroke-linecap="round" stroke-dasharray="6 8"/>
<path opacity="0.5" d="M3251.38 253.457H3064.28C3058.98 253.457 3053.7 253.036 3048.46 252.199L2892.19 227.168C2886.97 226.332 2881.69 225.911 2876.4 225.91L1691.22 225.574C1681.57 225.572 1672.13 228.36 1664.03 233.602L1369.83 424.061C1361.74 429.301 1352.3 432.089 1342.66 432.089H1073L900.498 432.089L298.5 434.456L-250.5 485.427L-754.267 485.846L-980.002 485.427L-2074.69 484.631C-2111.79 484.604 -2145.85 505.114 -2163.18 537.913L-2293.85 785.216C-2311.17 817.992 -2345.2 838.498 -2382.26 838.498H-2641.5" stroke="#F0912A" stroke-width="2" stroke-linecap="round" stroke-dasharray="6 8"/>
<path opacity="0.5" d="M3305.5 -176.668H3117.09C3079.76 -176.668 3045.53 -155.871 3028.33 -122.734L2902.36 119.992C2885.15 153.145 2850.9 173.945 2813.55 173.926L1645.86 173.336C1636.08 173.331 1626.52 176.192 1618.36 181.564L1324.38 374.953C1316.22 380.32 1306.67 383.181 1296.9 383.181H1073L912.124 383.181C904.477 383.181 896.931 381.427 890.068 378.053L797.864 332.733C784.138 325.987 769.047 322.479 753.752 322.479L590.246 322.479C551.363 322.479 516.005 299.939 499.592 264.69L333.408 -92.2113C316.995 -127.461 281.637 -150 242.754 -150H-178.32C-217.937 -150 -253.819 -126.612 -269.811 -90.3663L-443.228 302.686C-459.2 338.888 -495.016 362.267 -534.584 362.32L-647.141 362.472C-658.791 362.487 -670.348 364.538 -681.292 368.533L-851.696 430.728C-857.19 432.733 -862.992 433.758 -868.839 433.758H-1906.33C-1931.51 433.758 -1955.77 424.257 -1974.25 407.153L-2288.75 116.105C-2307.23 99.0003 -2331.49 89.499 -2356.67 89.499H-2628.5" stroke="#F0912A" stroke-width="2" stroke-linecap="round" stroke-dasharray="6 8"/>
<path opacity="0.5" d="M3584.5 -95.668H3112.97C3077.83 -95.668 3045.27 -77.2205 3027.2 -47.0769L2913.49 142.652C2895.41 172.809 2862.83 191.258 2827.67 191.243L1660.98 190.75C1651.25 190.746 1641.72 193.582 1633.58 198.911L1339.53 391.323C1331.39 396.648 1321.88 399.484 1312.16 399.484H1073L900.5 399.485L298.5 399.484L-250.5 451.944H-700.441L-980 451.022L-2376.67 449.603C-2403.43 449.575 -2429.07 438.821 -2447.84 419.746L-2672.12 191.857C-2690.91 172.756 -2716.59 162 -2743.39 162H-3126.5" stroke="#F0912A" stroke-width="2" stroke-linecap="round" stroke-dasharray="6 8"/>
<path d="M3377.88 82.9297H3090.56C3068.37 82.9297 3046.81 90.3122 3029.27 103.914L2921.42 187.576C2903.87 201.186 2882.3 208.568 2860.09 208.561L1676.1 208.161C1666.41 208.158 1656.93 210.97 1648.81 216.255L1354.69 407.691C1346.57 412.973 1337.1 415.785 1327.41 415.785H1073L900.502 415.786L298.5 416.969L-250.5 468.176L-727.351 468.294L-979.998 468.176H-1670.45C-1696.75 468.176 -1721.99 457.817 -1740.71 439.341L-1824.79 356.334C-1843.5 337.858 -1868.74 327.498 -1895.04 327.498H-3404" stroke="#F0912A" stroke-width="2" stroke-linecap="round"/>
<path d="M3519.5 371.573H3088.05C3067.41 371.573 3047.27 365.184 3030.4 353.285L2900.26 261.474C2883.4 249.578 2863.27 243.19 2842.63 243.186L1706.33 242.991C1696.73 242.989 1687.33 245.753 1679.26 250.952L1384.99 440.434C1376.92 445.632 1367.52 448.396 1357.92 448.396H1073L900.5 448.396L298.5 451.945L-250.5 504.123L-781.177 503.442L-980 502.761L-1410.89 503.951C-1448.93 504.056 -1483.61 525.732 -1500.38 559.876L-1633.54 831.077C-1650.35 865.31 -1685.17 887.002 -1723.3 887.002H-1948" stroke="#F0912A" stroke-width="2" stroke-linecap="round"/>
<path d="M996.5 501.5L620.15 985.317C601.168 1009.72 571.966 1023.97 541.051 1023.92L-102 1022.84L-520.725 1023.89C-547.455 1023.96 -573.101 1013.32 -591.936 994.357L-745.959 839.246C-764.561 820.513 -775 795.184 -775 768.785V556" stroke="#F0912A" stroke-width="2" stroke-linecap="round"/>
<path opacity="0.5" d="M3270 443.985H3096.42C3070.69 443.985 3045.94 434.063 3027.34 416.283L2893.33 288.234C2874.73 270.457 2849.99 260.535 2824.26 260.532L1736.1 260.406C1716.97 260.404 1698.25 265.883 1682.15 276.195L1412.46 448.909C1396.37 459.219 1377.65 464.698 1358.53 464.698H1073L1029.71 465.794C1000.11 466.543 972.357 480.374 953.938 503.561L592.65 958.363C573.643 982.289 544.739 996.213 514.182 996.161L-129.5 995.083L-489.331 994.036C-515.555 993.96 -540.7 983.585 -559.348 965.148L-706.942 819.222C-726.01 800.369 -736.708 774.647 -736.633 747.832L-736.279 620.431C-736.125 565.094 -780.941 520.153 -836.279 520.153H-980H-1656.47C-1696.52 520.153 -1732.7 544.049 -1748.43 580.883L-1778.27 650.772C-1794 687.605 -1830.19 711.502 -1870.24 711.502H-2371" stroke="#F0912A" stroke-width="2" stroke-linecap="round" stroke-dasharray="6 8"/>
<path opacity="0.5" d="M847.5 464H370.5" stroke="#F0912A" stroke-width="2" stroke-linecap="round" stroke-dasharray="6 8"/>
<path opacity="0.5" d="M847.5 480H370.5" stroke="#F0912A" stroke-width="2" stroke-linecap="round" stroke-dasharray="6 8"/>
<path opacity="0.5" d="M847.5 496H717.19C686.739 496 657.947 509.875 638.974 533.692L504.5 702.5" stroke="#F0912A" stroke-width="2" stroke-linecap="round" stroke-dasharray="6 8"/>
<path opacity="0.5" d="M916.5 323.5L815.437 262.054C799.78 252.534 781.809 247.5 763.486 247.5H698.631C658.785 247.5 622.741 223.844 606.887 187.287L548 51.5" stroke="#F0912A" stroke-width="2" stroke-linecap="round" stroke-dasharray="6 8"/>
<path opacity="0.5" d="M943.496 399.833C943.495 399.834 943.494 399.835 943.493 399.835L539.008 894.78C520.015 918.019 491.589 931.5 461.576 931.5L-178.728 931.5C-213.938 931.5 -246.554 912.983 -264.598 882.748L-366.503 711.998" stroke="#F0912A" stroke-width="2" stroke-linecap="round" stroke-dasharray="6 8"/>
<path d="M955.495 414.722L553.518 910.638C534.53 934.063 505.987 947.669 475.833 947.669L-187.858 947.669C-222.995 947.669 -255.554 929.228 -273.623 899.092L-384.001 714.999" stroke="#F0912A" stroke-width="2" stroke-linecap="round"/>
<path opacity="0.5" d="M967.496 429.612C967.497 429.613 967.497 429.615 967.496 429.616L567.519 926.538C548.537 950.122 519.893 963.836 489.619 963.836L-457.492 963.835C-483.473 963.835 -508.434 953.724 -527.09 935.642L-668.1 798.968C-687.533 780.132 -698.502 754.225 -698.502 727.162L-698.502 503.501" stroke="#F0912A" stroke-width="2" stroke-linecap="round" stroke-dasharray="6 8"/>
<path opacity="0.5" d="M979.496 444.499L583.063 942.248C564.067 966.099 535.227 979.98 504.736 979.947L-473.385 978.916C-499.504 978.889 -524.576 968.643 -543.24 950.369L-687.566 809.058C-706.79 790.236 -717.619 764.461 -717.606 737.557L-717.501 516.501" stroke="#F0912A" stroke-width="2" stroke-linecap="round" stroke-dasharray="6 8"/>
<path opacity="0.5" d="M3305.5 543.925H3105.97C3074.69 543.925 3045.22 529.294 3026.31 504.383L2884.36 317.359C2865.45 292.447 2835.98 277.816 2804.71 277.816L1751.14 277.817C1732.11 277.817 1713.47 283.248 1697.42 293.472L1427.58 465.344C1411.53 475.569 1392.89 481 1373.86 481H1073L1035.82 482.446C1006.59 483.583 979.315 497.466 961.195 520.437L606.016 970.692C587.06 994.723 558.142 1008.75 527.535 1008.76L-115.75 1008.96L-505.012 1008.96C-531.499 1008.96 -556.904 998.45 -575.652 979.74L-726.396 829.296C-745.263 810.466 -755.832 784.882 -755.755 758.226L-755.414 640.117C-755.255 584.776 -800.073 539.828 -855.414 539.828H-980H-2485.61C-2518.7 539.828 -2549.64 523.459 -2568.27 496.107L-2570.23 493.221C-2588.86 465.869 -2619.8 449.5 -2652.89 449.5H-2838.5" stroke="#F0912A" stroke-width="2" stroke-linecap="round" stroke-dasharray="6 8"/>
<ellipse cx="366" cy="372.5" rx="366" ry="372.5" transform="matrix(-1 0 0 1 411 73)" fill="#FBBF77"/>
<circle cx="1153" cy="416" r="7" fill="#944712" stroke="#F0912A" stroke-width="2"/>
<circle cx="1159" cy="350" r="7" fill="#944712" stroke="#F0912A" stroke-width="2"/>
<circle cx="1187" cy="350" r="7" fill="#944712" stroke="#F0912A" stroke-width="2"/>
<circle cx="1242" cy="350" r="7" fill="#944712" stroke="#F0912A" stroke-width="2"/>
<circle cx="1216" cy="449" r="7" fill="#944712" stroke="#F0912A" stroke-width="2"/>
<circle cx="1173" cy="449" r="7" fill="#944712" stroke="#F0912A" stroke-width="2"/>
<circle cx="609" cy="416" r="7" fill="#944712" stroke="#F0912A" stroke-width="2"/>
<circle cx="565" cy="416" r="7" fill="#944712" stroke="#F0912A" stroke-width="2"/>
<circle cx="471" cy="416" r="7" fill="#944712" stroke="#F0912A" stroke-width="2"/>
<circle cx="565" cy="247" r="7" fill="#944712" stroke="#F0912A" stroke-width="2"/>
<circle cx="471" cy="65" r="7" fill="#944712" stroke="#F0912A" stroke-width="2"/>
<circle cx="767" cy="648" r="7" fill="#944712" stroke="#F0912A" stroke-width="2"/>
<circle cx="714" cy="713" r="7" fill="#944712" stroke="#F0912A" stroke-width="2"/>
<circle cx="887" cy="643" r="7" fill="#944712" stroke="#F0912A" stroke-width="2"/>
<circle cx="929" cy="588" r="7" fill="#944712" stroke="#F0912A" stroke-width="2"/>
<circle cx="814" cy="736" r="7" fill="#944712" stroke="#F0912A" stroke-width="2"/>
<circle cx="810" cy="595" r="7" fill="#944712" stroke="#F0912A" stroke-width="2"/>
<circle cx="752" cy="450" r="7" fill="#944712" stroke="#F0912A" stroke-width="2"/>
<circle cx="793" cy="616" r="7" fill="#944712" stroke="#F0912A" stroke-width="2"/>
<circle cx="527" cy="450" r="7" fill="#944712" stroke="#F0912A" stroke-width="2"/>
<circle cx="36" cy="36" r="36" transform="matrix(-1 0 0 1 582 12)" fill="#FDD9A8"/>
<path d="M502.697 743.395C526.831 743.395 546.395 723.831 546.395 699.697C546.395 675.564 526.831 656 502.697 656C478.564 656 459 675.564 459 699.697C459 723.831 478.564 743.395 502.697 743.395Z" fill="#F0912A"/>
<circle cx="949.5" cy="429.501" r="131.837" fill="#F7A94C"/>
<circle cx="949.5" cy="429.502" r="106.873" fill="#DB771A"/>
<circle cx="949.5" cy="429.499" r="82.6904" fill="#944712"/>
<circle cx="949.114" cy="429.891" r="54.6566" fill="white" stroke="#452007" stroke-width="4"/>
<path d="M1051.55 531.553C1031.37 551.737 1005.65 565.482 977.655 571.051C949.66 576.619 920.641 573.761 894.27 562.838C867.898 551.914 845.358 533.416 829.5 509.683C813.641 485.949 805.177 458.046 805.177 429.501C805.177 400.957 813.641 373.054 829.5 349.32C845.358 325.586 867.898 307.088 894.27 296.165C920.641 285.241 949.66 282.383 977.655 287.952C1005.65 293.521 1031.37 307.266 1051.55 327.45" stroke="#F7A94C" stroke-linecap="round"/>
<path d="M835.19 398.873C841.247 376.264 853.874 355.96 871.471 340.527C889.069 325.095 910.847 315.227 934.053 312.172C957.259 309.117 980.849 313.011 1001.84 323.364C1022.83 333.716 1040.28 350.06 1051.99 370.331C1063.69 390.601 1069.12 413.886 1067.59 437.242C1066.06 460.598 1057.64 482.975 1043.39 501.544C1029.14 520.114 1009.7 534.04 987.54 541.564C965.376 549.088 941.479 549.87 918.87 543.812" stroke="#F7A94C" stroke-linecap="round"/>
<path d="M996.443 348.193C1015.49 359.191 1030.07 376.527 1037.65 397.178C1045.22 417.829 1045.3 440.482 1037.88 461.187C1030.46 481.892 1016 499.334 997.03 510.469C978.062 521.604 955.786 525.726 934.089 522.116C912.392 518.506 892.652 507.392 878.311 490.715C863.971 474.037 855.941 452.854 855.622 430.861C855.304 408.868 862.717 387.461 876.569 370.376C890.421 353.29 909.831 341.61 931.415 337.373" stroke="#F7A94C" stroke-linecap="round"/>
<circle cx="1014.25" cy="497.365" r="7.02088" fill="#F7A94C"/>
<circle cx="969.002" cy="545.734" r="5.46069" fill="#F7A94C"/>
<circle cx="876.171" cy="486.445" r="5.46069" fill="#F0912A"/>
<circle cx="930.831" cy="337.168" r="5.46069" fill="#F0912A"/>
<circle cx="950.28" cy="215.749" r="10.9214" fill="#F0912A"/>
<circle cx="919.076" cy="640.904" r="7.02088" fill="#F7A94C"/>
<circle cx="1147.02" cy="560.978" r="7.02088" fill="#F0912A"/>
<path d="M957.467 433.541C963.409 433.343 968.385 438.003 968.578 443.946C968.77 449.889 964.106 454.861 958.163 455.049C952.227 455.236 947.262 450.579 947.07 444.643C946.878 438.708 951.531 433.739 957.467 433.541Z" fill="#783A12"/>
<path d="M957.468 435.3C962.427 435.102 966.609 438.958 966.813 443.916C967.018 448.875 963.168 453.062 958.209 453.273C953.242 453.485 949.045 449.626 948.84 444.658C948.635 439.69 952.5 435.498 957.468 435.3Z" fill="white"/>
<path d="M957.413 437.401C958.768 437.344 958.696 437.663 958.672 438.876C959.326 438.944 960.076 439.225 960.614 439.599C960.907 439.801 961.436 440.178 961.504 440.538C961.576 440.922 960.763 441.741 960.393 441.786C960.008 441.834 959.633 441.332 959.332 441.124C958.754 440.724 958.074 440.606 957.389 440.721C956.658 440.812 955.95 441.42 956.165 442.209C956.445 443.235 958.194 443.327 959.029 443.605C959.601 443.756 960.043 443.945 960.554 444.245C962.015 445.106 962.312 447.049 961.403 448.432C960.778 449.383 959.787 449.723 958.674 449.931C958.689 450.901 958.811 451.319 957.688 451.297C956.799 451.29 956.964 450.613 956.981 449.937C956.359 449.812 955.805 449.679 955.219 449.363C954.822 449.15 953.971 448.571 953.812 448.116C953.776 448.012 953.825 447.807 953.896 447.721C954.144 447.417 954.539 446.801 954.942 446.741C955.381 446.675 955.752 447.25 956.084 447.499C956.706 447.965 957.475 448.124 958.238 448.035C958.628 447.994 959.261 447.813 959.479 447.466C960.608 445.684 957.719 445.42 956.654 445.094C955.423 444.717 954.217 443.993 954.002 442.602C953.685 440.551 955.042 439.191 956.982 438.875C956.962 438.265 956.807 437.72 957.413 437.401Z" fill="#783A12"/>
<path d="M925.482 449.963L925.485 435.76L925.478 431.502C925.476 430.767 925.458 429.988 925.502 429.254C925.515 429.033 925.653 428.86 925.776 428.694C925.963 428.442 926.48 428.35 926.772 428.351C928.761 428.352 930.757 428.317 932.744 428.366C933.157 428.376 933.636 428.787 933.691 429.204C933.765 429.769 933.733 430.381 933.732 430.958L933.732 434.032L933.733 449.963H937.074H945.35C945.942 449.976 946.57 449.964 947.165 449.962C947.589 450.822 948.283 451.724 948.907 452.445L924.909 452.447L917.114 452.448C915.772 452.45 914.441 452.454 913.09 452.436C911.985 452.489 911.434 451.117 912.182 450.348C912.69 449.825 913.693 449.961 914.382 449.961L914.39 447.718C914.443 448.386 914.415 449.287 914.401 449.965L922.241 449.961C923.321 449.971 924.402 449.972 925.482 449.963Z" fill="#783A12"/>
<path d="M933.709 449.96L933.708 439.336L933.707 436.001C933.707 435.413 933.682 434.595 933.732 434.031L933.733 449.962H937.074H945.35C945.942 449.975 946.57 449.963 947.165 449.962C947.589 450.821 948.283 451.723 948.907 452.444L924.909 452.446L917.114 452.448C915.772 452.449 914.441 452.453 913.09 452.436C911.985 452.489 911.434 451.116 912.182 450.347C912.69 449.824 913.693 449.961 914.382 449.96L914.39 447.717C914.443 448.385 914.415 449.287 914.401 449.964L922.241 449.961C923.321 449.97 924.402 449.971 925.482 449.962L933.709 449.96Z" fill="#F0912A"/>
<path d="M937.074 449.964L937.074 431.204L937.072 425.19C937.072 424.192 937.062 423.188 937.088 422.193C937.1 421.707 937.618 421.285 938.074 421.272C940.063 421.217 942.054 421.296 944.047 421.247C944.628 421.232 945.285 421.549 945.334 422.209C945.364 423.239 945.351 424.278 945.35 425.309L945.349 431.267L945.35 449.964H937.074Z" fill="#783A12"/>
<path d="M949.573 413.669C949.649 413.665 949.733 413.658 949.81 413.659C952.034 413.676 954.27 413.61 956.492 413.686C956.983 413.703 957.407 414.097 957.443 414.592C957.49 415.226 957.469 415.897 957.469 416.542L957.465 420.136L957.464 432.227C956.011 432.256 954.761 432.57 953.417 433.074C951.593 433.784 949.978 434.943 948.72 436.443L948.717 421.657L948.712 417.172C948.71 416.401 948.704 415.629 948.714 414.858C948.723 414.188 948.958 413.903 949.573 413.669Z" fill="#783A12"/>
<path d="M957.505 399.364C957.998 399.305 958.594 399.561 958.486 400.143C958.374 400.753 958.139 401.421 957.957 402.019L956.972 405.181C956.686 406.098 956.417 407.03 956.109 407.934C955.962 408.286 955.468 408.522 955.114 408.42C954.522 408.248 954.24 407.569 953.923 407.089C953.728 406.795 953.531 406.471 953.336 406.167C952.283 406.779 950.965 407.692 949.888 408.365C947.997 409.538 946.082 410.673 944.144 411.768C937.404 415.533 930.45 418.9 923.317 421.853C921.602 422.57 919.879 423.266 918.148 423.943C917.429 424.222 916.411 424.649 915.688 424.863C915.123 424.864 914.718 424.514 914.819 423.93C914.934 423.264 916.154 422.966 916.741 422.713C918.086 422.135 919.426 421.544 920.758 420.938C926.402 418.377 931.929 415.565 937.322 412.511C942.094 409.768 946.763 406.849 951.319 403.761C950.751 403.405 949.139 402.605 948.988 402.057C948.915 401.791 948.957 401.506 949.105 401.272C949.297 400.975 949.57 400.892 949.899 400.825C950.636 400.675 951.378 400.54 952.117 400.399L957.505 399.364Z" fill="#783A12"/>
<path d="M982.829 407.095C983.203 407.075 983.656 407.33 983.568 407.736C983.16 409.604 982.721 411.489 982.263 413.346C982.001 414.411 980.894 413.577 980.605 412.99C980.494 412.776 979.991 412.229 979.818 412.016C979.49 412.218 979.16 412.422 978.836 412.63C976.23 414.297 973.474 415.651 970.664 416.932C972.525 417.76 974.678 418.568 976.578 419.334C976.688 419.137 976.782 418.981 976.917 418.799C977.429 418.093 978.206 417.624 979.069 417.499C979.965 417.37 980.843 417.573 981.565 418.125C982.289 418.672 982.764 419.485 982.884 420.384C982.998 421.278 982.745 422.181 982.181 422.885C981.632 423.587 980.823 424.038 979.937 424.136C978.89 424.246 978.103 423.922 977.3 423.279C976.682 422.64 976.376 422.055 976.254 421.177C975.561 420.943 974.731 420.575 974.038 420.293L970.209 418.738C968.902 420.588 966.336 420.788 964.924 418.971C964.407 418.303 964.177 417.457 964.282 416.619C964.391 415.763 964.837 414.985 965.522 414.458C966.209 413.935 967.077 413.707 967.932 413.828C968.921 413.964 969.56 414.437 970.144 415.211C973.139 413.742 975.56 412.449 978.33 410.527C977.912 410.165 976.867 409.464 976.635 408.962C976.521 408.717 976.757 408.268 977.098 408.188C977.743 408.037 978.423 407.928 979.089 407.806C980.338 407.58 981.584 407.343 982.829 407.095Z" fill="#783A12"/>
<path d="M979.467 419.05C980.442 418.991 981.279 419.735 981.336 420.71C981.392 421.685 980.646 422.521 979.671 422.575C978.699 422.628 977.868 421.885 977.811 420.914C977.755 419.943 978.495 419.109 979.467 419.05Z" fill="white"/>
<path d="M967.167 415.403C968.055 415.237 968.91 415.822 969.076 416.711C969.241 417.599 968.654 418.453 967.766 418.617C966.879 418.781 966.027 418.196 965.862 417.309C965.697 416.423 966.281 415.57 967.167 415.403Z" fill="white"/>
<path d="M914.39 447.717L914.39 440.013L914.382 437.943C914.377 437.171 914.22 435.707 915.367 435.666C917.172 435.601 919.01 435.683 920.82 435.638C922.529 435.595 922.251 436.937 922.248 438.149L922.241 440.855L922.241 449.961L914.401 449.965C914.415 449.287 914.444 448.386 914.39 447.717Z" fill="#783A12"/>
<path d="M969.571 426.832C971.562 426.738 977.267 427.221 978.45 428.48C980.814 430.994 970.986 431.441 970.278 431.469C967.939 431.525 963.457 431.206 961.4 429.871C961.209 429.753 960.961 429.422 960.959 429.205C960.953 428.499 961.781 428.109 962.45 427.865C964.693 427.047 967.206 426.903 969.571 426.832Z" fill="#783A12"/>
<path d="M960.941 430.602C961.306 430.802 961.643 431.121 962.062 431.305C965.881 432.986 975.592 433.215 978.811 430.602C978.815 431.284 978.911 433.901 978.7 434.344C978.613 434.471 978.51 434.588 978.396 434.691C977.027 435.932 972.921 436.377 971.084 436.445C969.638 436.498 968.315 436.409 966.894 436.358C965.088 434.437 963.463 433.346 960.927 432.606L960.941 430.602Z" fill="#783A12"/>
<path d="M978.757 445.691C978.759 445.694 978.762 445.696 978.764 445.699C978.864 445.822 978.835 448.44 978.828 448.835C978.82 449.269 978.713 449.504 978.392 449.797C977.937 450.213 977.305 450.466 976.731 450.667C973.87 451.67 970.564 451.717 967.572 451.544L967.513 451.516L967.513 451.457C968.299 450.524 969.053 448.781 969.422 447.605C971.957 447.613 976.746 447.35 978.757 445.691Z" fill="#783A12"/>
<path d="M978.778 435.598C978.881 435.906 978.775 437.991 978.826 438.459C978.868 438.849 978.783 439.403 978.453 439.669C976.472 441.266 971.924 441.478 969.583 441.474C969.463 441.04 969.331 440.636 969.192 440.209C968.74 439.056 968.457 438.542 967.797 437.512C970.805 437.643 976.363 437.591 978.778 435.598Z" fill="#783A12"/>
<path d="M978.75 440.668C978.866 440.774 978.819 442.362 978.809 442.571C978.78 443.179 979.004 444.23 978.483 444.65C976.473 446.269 972.055 446.495 969.675 446.501C969.949 445.047 969.962 444.03 969.786 442.585C972.326 442.575 976.749 442.306 978.75 440.668Z" fill="#783A12"/>
</g>
<defs>
<clipPath id="clip0_554_19436">
<rect width="3360" height="1454" fill="white" transform="translate(-1414 -329)"/>
</clipPath>
</defs>
</svg>
