<svg width="892" height="671" viewBox="0 0 892 671" fill="none" xmlns="http://www.w3.org/2000/svg">
<path d="M2281 17H2248.38C2205.11 17 2166.75 44.8238 2153.32 85.951L2128.87 160.798C2115.44 201.925 2077.08 229.749 2033.81 229.749H1652.68C1633.12 229.749 1617.27 245.602 1617.27 265.158C1617.27 284.714 1601.41 300.567 1581.86 300.567H1512.16H1469.13C1459.59 300.567 1450.25 297.838 1442.21 292.703L1408.68 271.284C1400.64 266.148 1391.3 263.419 1381.76 263.419H1303.14C1275.53 263.419 1253.15 285.788 1253.14 313.392L1252.93 688.322C1252.92 714.106 1232.01 735 1206.23 735H742.903C740.853 735 739.191 733.338 739.191 731.287C739.191 729.237 740.853 727.575 742.903 727.575H1198.03C1223.37 727.575 1243.91 707.032 1243.91 681.691V366.07C1243.91 338.456 1221.53 316.07 1193.91 316.07H826.079H786.926C738.285 316.07 696.7 281.07 688.395 233.144L679.204 180.104C670.899 132.177 629.313 97.1778 580.672 97.1778H534" stroke="#CCADCB" stroke-width="2" stroke-linecap="round"/>
<path opacity="0.5" d="M2340 60H2244C2201.98 60 2164.45 86.2643 2150.05 125.737L2133.86 170.132C2119.46 209.622 2081.9 235.89 2039.87 235.869L1656.63 235.681C1637.19 235.671 1621.43 251.424 1621.43 270.86C1621.43 290.288 1605.68 306.038 1586.25 306.038H1511.26L1465.28 306.038C1457.61 306.038 1450.04 304.273 1443.16 300.88L1405.93 282.517C1399.05 279.124 1391.48 277.359 1383.81 277.359L1311.21 277.359C1283.61 277.359 1261.23 299.73 1261.21 327.334L1261.03 693.56C1261.02 720.317 1239.33 742 1212.57 742H739.056C732.911 742 727.93 737.019 727.93 730.874C727.93 724.729 732.911 719.748 739.056 719.748H1188.02C1213.43 719.748 1234.03 699.149 1234.03 673.739V372.107C1234.03 344.468 1211.6 322.071 1183.96 322.108L825.214 322.578L690.216 322.966C657.825 323.059 627.394 307.456 608.563 281.1L560.39 213.676C541.618 187.403 511.315 171.81 479.024 171.81H406" stroke="#CCADCB" stroke-width="2" stroke-linecap="round" stroke-dasharray="6 8"/>
<path opacity="0.5" d="M2240 267.343H2182.77C2177.46 267.343 2172.16 266.92 2166.92 266.079L2125.16 259.376C2119.93 258.536 2114.64 258.114 2109.34 258.113L1676.89 258.008C1657.78 258.004 1642.29 273.492 1642.29 292.6C1642.29 311.704 1626.8 327.191 1607.7 327.191H1511.76L1454.1 327.191L1395.93 332.254L1347.48 332.254C1319.87 332.254 1297.49 354.633 1297.48 382.243L1297.41 723.011C1297.4 750.621 1275.02 773 1247.41 773H727.471C704.842 773 686.498 754.656 686.498 732.027C686.498 709.398 704.842 691.053 727.471 691.053H1151.89C1177.6 691.053 1198.43 670.217 1198.43 644.513V395.305C1198.43 367.705 1176.07 345.326 1148.47 345.305L825.442 345.061L499.698 344.824C462.57 344.797 428.482 365.343 411.167 398.187L404.943 409.991C387.64 442.811 353.587 463.353 316.484 463.353H270" stroke="#CCADCB" stroke-width="2" stroke-linecap="round" stroke-dasharray="6 8"/>
<path opacity="0.5" d="M2257 124H2234.56C2197.22 124 2162.98 144.81 2145.79 177.964L2140.99 187.217C2123.79 220.384 2089.54 241.197 2052.17 241.181L1661.6 241.012C1642.23 241.004 1626.52 256.706 1626.52 276.079C1626.52 295.446 1610.82 311.147 1591.45 311.147H1511.33L1462.19 311.147C1456.58 311.147 1451.01 310.202 1445.71 308.352L1403.6 293.65C1398.3 291.8 1392.73 290.855 1387.12 290.855L1320.36 290.855C1292.75 290.855 1270.37 313.228 1270.36 340.834L1270.21 700.021C1270.19 727.627 1247.81 750 1220.21 750L736.56 750C726.297 750 717.977 741.68 717.977 731.418C717.977 721.155 726.297 712.835 736.56 712.835L1179.13 712.835C1204.59 712.835 1225.24 692.189 1225.24 666.721V377.746C1225.24 350.115 1202.83 327.722 1175.2 327.746L825.611 328.054H542.322C517.125 328.054 492.857 318.542 474.371 301.42L407.632 239.608C389.146 222.486 364.878 212.974 339.681 212.974H275" stroke="#CCADCB" stroke-width="2" stroke-linecap="round" stroke-dasharray="6 8"/>
<path opacity="0.5" d="M2351 151H2230.41C2195.71 151 2163.56 169.225 2145.74 198.999C2127.91 228.784 2095.74 247.011 2061.02 246.998L1666.86 246.856C1647.57 246.849 1631.93 262.485 1631.93 281.776C1631.93 301.061 1616.3 316.696 1597.01 316.696H1511.59L1458.98 316.696C1455.62 316.696 1452.28 316.358 1448.99 315.688L1400.72 305.847C1397.43 305.177 1394.09 304.839 1390.73 304.839L1329.43 304.839C1301.82 304.839 1279.44 327.214 1279.43 354.821L1279.3 708.018C1279.29 735.625 1256.91 758 1229.3 758L733.354 758C718.971 758 707.312 746.34 707.312 731.957C707.312 717.574 718.971 705.914 733.354 705.914L1170.04 705.914C1195.6 705.914 1216.32 685.197 1216.32 659.641V383.807C1216.32 356.185 1193.92 333.796 1166.3 333.807L825.419 333.942L386.499 333.495C359.715 333.468 334.061 322.697 315.285 303.595L279.437 267.125C260.636 247.998 234.94 237.225 208.121 237.225H108" stroke="#CCADCB" stroke-width="2" stroke-linecap="round" stroke-dasharray="6 8"/>
<path d="M2281 212H2207.84C2185.65 212 2164.09 219.385 2146.57 232.992C2129.03 246.604 2107.46 253.99 2085.26 253.983L1671.25 253.864C1652.08 253.859 1636.55 269.393 1636.55 288.557C1636.55 307.717 1621.01 323.25 1601.85 323.25H1511.22L1453.61 323.25L1395.5 319.854L1338.19 319.854C1310.58 319.854 1288.2 342.231 1288.19 369.84L1288.09 716.015C1288.08 743.623 1265.7 766 1238.09 766H730.591C712.121 766 697.148 751.027 697.148 732.557C697.148 714.087 712.121 699.114 730.591 699.114H1160.82C1186.42 699.114 1207.18 678.355 1207.18 652.748V390.829C1207.18 363.219 1184.8 340.834 1157.19 340.829L825.563 340.76H614.708C593.277 340.76 572.708 332.314 557.462 317.251C542.216 302.188 521.648 293.742 500.216 293.742H16" stroke="#CCADCB" stroke-width="2" stroke-linecap="round"/>
<path d="M2329 307.862H2205.79C2185.19 307.862 2165.1 301.504 2148.26 289.655L2139.18 283.27C2122.34 271.424 2102.25 265.066 2081.66 265.063L1680.89 265.005C1661.98 265.002 1646.66 280.33 1646.66 299.238C1646.66 318.144 1631.33 333.47 1612.42 333.47H1511.04L1459.07 333.47C1455.28 333.47 1451.5 333.902 1447.8 334.758L1400.75 345.645C1397.06 346.5 1393.27 346.932 1389.48 346.932L1355.7 346.932C1328.09 346.932 1305.71 369.313 1305.7 396.924L1305.65 729.008C1305.65 756.619 1283.27 779 1255.65 779H723.452C696.844 779 675.274 757.43 675.274 730.822C675.274 704.214 696.844 682.644 723.452 682.644H1142C1167.78 682.644 1188.68 661.748 1188.68 635.971V401.984C1188.68 374.394 1166.33 352.019 1138.74 351.984L824.64 351.593L721.841 351.876C683.846 351.98 649.192 373.608 632.405 407.694L624.445 423.857C607.615 458.032 572.829 479.676 534.735 479.676H501" stroke="#CCADCB" stroke-width="2" stroke-linecap="round"/>
<path opacity="0.5" d="M2246 332.242H2214.65C2188.94 332.242 2164.22 322.343 2145.62 304.599L2139.42 298.684C2120.82 280.943 2096.11 271.043 2070.4 271.041L1686.55 271.003C1667.73 271.001 1652.47 286.258 1652.47 305.078C1652.47 323.896 1637.21 339.152 1618.39 339.152H1511.85L1463.31 339.152C1457.29 339.152 1451.32 340.239 1445.69 342.361L1404.58 357.844C1398.95 359.966 1392.98 361.054 1386.96 361.054L1365.59 361.054C1337.98 361.054 1315.59 383.437 1315.59 411.05L1315.56 737.004C1315.56 764.617 1293.18 787 1265.56 787L721.763 787C691.038 787 666.13 762.092 666.13 731.368C666.13 700.643 691.038 675.735 721.763 675.735L1133.89 675.735C1159.72 675.735 1180.67 654.793 1180.67 628.959V408.174C1180.67 380.593 1158.33 358.221 1130.75 358.174L825.817 357.651H612.417C591.36 357.651 572.332 370.208 564.052 389.568C555.771 408.928 536.743 421.484 515.687 421.484H361" stroke="#CCADCB" stroke-width="2" stroke-linecap="round" stroke-dasharray="6 8"/>
<ellipse cx="56" cy="56.5" rx="56" ry="56.5" transform="matrix(-1 0 0 1 957 281)" fill="#E3D2E2"/>
<circle cx="838.5" cy="668.5" r="2" fill="#F0912A" stroke="#CCADCB"/>
<circle cx="839" cy="316" r="4.5" fill="#592A58" stroke="#CCADCB"/>
<circle cx="817" cy="341" r="4.5" fill="#592A58" stroke="#CCADCB"/>
<path d="M695 336.5C695.333 336.5 695.696 336.703 695.998 337.156C696.298 337.606 696.5 338.257 696.5 339C696.5 339.743 696.298 340.394 695.998 340.844C695.696 341.297 695.333 341.5 695 341.5C694.667 341.5 694.304 341.297 694.002 340.844C693.702 340.394 693.5 339.743 693.5 339C693.5 338.257 693.702 337.606 694.002 337.156C694.304 336.703 694.667 336.5 695 336.5Z" fill="#F0912A" stroke="#CCADCB"/>
<path d="M633 403.5C634.311 403.5 635.5 404.768 635.5 406.5C635.5 408.232 634.311 409.5 633 409.5C631.689 409.5 630.5 408.232 630.5 406.5C630.5 404.768 631.689 403.5 633 403.5Z" fill="#F0912A" stroke="#CCADCB"/>
<circle cx="621.5" cy="431.5" r="2" fill="#F0912A" stroke="#CCADCB"/>
<circle cx="545" cy="479" r="4.5" fill="#592A58" stroke="#CCADCB"/>
<circle cx="500.5" cy="293.5" r="3" fill="#F0912A" stroke="#CCADCB"/>
<circle cx="393" cy="293" r="4.5" fill="#592A58" stroke="#CCADCB"/>
<circle cx="351" cy="293" r="4.5" fill="#592A58" stroke="#CCADCB"/>
<circle cx="269" cy="293" r="4.5" fill="#592A58" stroke="#CCADCB"/>
<circle cx="125" cy="293" r="4.5" fill="#592A58" stroke="#CCADCB"/>
<circle cx="150" cy="293" r="4.5" fill="#592A58" stroke="#CCADCB"/>
<circle cx="74" cy="293" r="4.5" fill="#592A58" stroke="#CCADCB"/>
<path d="M551.5 309.5C552.523 309.5 553.5 310.53 553.5 312C553.5 313.47 552.523 314.5 551.5 314.5C550.477 314.5 549.5 313.47 549.5 312C549.5 310.53 550.477 309.5 551.5 309.5Z" fill="#F0912A" stroke="#CCADCB"/>
<path d="M543 301.5C544.47 301.5 545.5 302.477 545.5 303.5C545.5 304.523 544.47 305.5 543 305.5C541.53 305.5 540.5 304.523 540.5 303.5C540.5 302.477 541.53 301.5 543 301.5Z" fill="#F0912A" stroke="#CCADCB"/>
<circle cx="836" cy="352" r="4.5" fill="#592A58" stroke="#CCADCB"/>
<circle cx="785" cy="352" r="4.5" fill="#592A58" stroke="#CCADCB"/>
<circle cx="770" cy="352" r="4.5" fill="#592A58" stroke="#CCADCB"/>
<circle cx="761" cy="352" r="4.5" fill="#592A58" stroke="#CCADCB"/>
<circle cx="823" cy="316" r="4.5" fill="#592A58" stroke="#CCADCB"/>
<circle cx="794" cy="315" r="4.5" fill="#592A58" stroke="#CCADCB"/>
<circle cx="754" cy="310" r="4.5" fill="#592A58" stroke="#CCADCB"/>
<circle cx="679" cy="180" r="4.5" fill="#592A58" stroke="#CCADCB"/>
<circle cx="688" cy="233" r="4.5" fill="#592A58" stroke="#CCADCB"/>
<circle cx="583" cy="97" r="4.5" fill="#592A58" stroke="#CCADCB"/>
<circle cx="597" cy="98" r="4.5" fill="#592A58" stroke="#CCADCB"/>
<circle cx="629" cy="109" r="4.5" fill="#592A58" stroke="#CCADCB"/>
<path d="M406.5 151.5C394.339 151.5 384.5 161.136 384.5 173C384.5 184.864 394.339 194.5 406.5 194.5C418.661 194.5 428.5 184.864 428.5 173C428.5 161.136 418.661 151.5 406.5 151.5Z" fill="#592A58" stroke="#CCADCB"/>
<circle cx="34" cy="34" r="35" transform="matrix(-1 0 0 1 323 429)" fill="#AE7EAB" stroke="#CCADCB" stroke-width="2"/>
<circle cx="12" cy="12" r="11.5" transform="matrix(-1 0 0 1 120 222)" fill="#AE7EAB" stroke="#CCADCB"/>
<circle cx="12.5" cy="12.5" r="12" transform="matrix(-1 0 0 1 371 410)" fill="#8C5C89" stroke="#CCADCB"/>
<path d="M500.5 469.5C493.853 469.5 488.5 474.668 488.5 481C488.5 487.332 493.853 492.5 500.5 492.5C507.147 492.5 512.5 487.332 512.5 481C512.5 474.668 507.147 469.5 500.5 469.5Z" fill="#341632" stroke="#CCADCB"/>
<path d="M27.5 265.5C12.5968 265.5 0.5 277.804 0.5 293C0.5 308.196 12.5968 320.5 27.5 320.5C42.4032 320.5 54.5 308.196 54.5 293C54.5 277.804 42.4032 265.5 27.5 265.5Z" fill="#CCADCB" stroke="#CCADCB"/>
<path d="M283.402 198.199C292.021 198.199 299.007 205.186 299.007 213.805C299.007 222.423 292.021 229.409 283.402 229.409C274.784 229.409 267.797 222.423 267.797 213.805C267.797 205.186 274.784 198.199 283.402 198.199Z" fill="#341632" stroke="#CCADCB" stroke-width="2"/>
<path d="M534.006 86.2266C539.634 86.2266 544.197 90.7894 544.197 96.418C544.197 102.047 539.634 106.609 534.006 106.609C528.377 106.609 523.814 102.047 523.814 96.418C523.814 90.7894 528.377 86.2266 534.006 86.2266Z" fill="#8C5C89" stroke="#CCADCB" stroke-width="2"/>
<path d="M204.058 315.18C214.264 315.18 222.539 323.454 222.539 333.661C222.539 343.868 214.264 352.142 204.058 352.143C193.851 352.143 185.576 343.868 185.576 333.661C185.576 323.454 193.851 315.18 204.058 315.18Z" fill="#AE7EAB" stroke="#CCADCB" stroke-width="2"/>
<circle cx="551.5" cy="328.501" r="131.837" fill="#AE7EAB"/>
<circle cx="551.499" cy="328.502" r="106.873" fill="#703D6E"/>
<circle cx="551.499" cy="328.499" r="82.6904" fill="#452044"/>
<circle cx="551.114" cy="328.891" r="54.6566" fill="white" stroke="#220C21" stroke-width="4"/>
<path d="M653.551 430.553C633.368 450.737 607.652 464.482 579.656 470.051C551.66 475.619 522.642 472.761 496.27 461.838C469.899 450.914 447.359 432.416 431.5 408.683C415.642 384.949 407.178 357.046 407.178 328.501C407.178 299.957 415.642 272.054 431.5 248.32C447.359 224.586 469.899 206.088 496.27 195.165C522.642 184.241 551.66 181.383 579.656 186.952C607.652 192.521 633.368 206.266 653.551 226.45" stroke="#AE7EAB" stroke-linecap="round"/>
<path d="M437.19 297.873C443.248 275.264 455.874 254.96 473.472 239.527C491.069 224.095 512.848 214.227 536.053 211.172C559.259 208.117 582.85 212.011 603.842 222.364C624.834 232.716 642.285 249.06 653.988 269.331C665.691 289.601 671.12 312.886 669.59 336.242C668.059 359.598 659.636 381.975 645.388 400.544C631.139 419.114 611.704 433.04 589.54 440.564C567.376 448.088 543.479 448.87 520.871 442.812" stroke="#AE7EAB" stroke-linecap="round"/>
<path d="M598.443 247.193C617.492 258.191 632.075 275.527 639.647 296.178C647.22 316.829 647.302 339.482 639.879 360.187C632.456 380.892 617.999 398.334 599.031 409.469C580.062 420.604 557.787 424.726 536.09 421.116C514.393 417.506 494.652 406.392 480.311 389.715C465.971 373.037 457.941 351.854 457.622 329.861C457.304 307.868 464.717 286.461 478.569 269.376C492.421 252.29 511.832 240.61 533.415 236.373" stroke="#AE7EAB" stroke-linecap="round"/>
<circle cx="616.248" cy="396.365" r="7.02088" fill="#AE7EAB"/>
<circle cx="571.002" cy="444.734" r="5.46069" fill="#AE7EAB"/>
<circle cx="478.171" cy="385.445" r="5.46069" fill="#8C5C89"/>
<circle cx="532.831" cy="236.168" r="5.46069" fill="#8C5C89"/>
<circle cx="552.28" cy="114.749" r="10.9214" fill="#8C5C89"/>
<circle cx="521.076" cy="539.904" r="7.02088" fill="#AE7EAB"/>
<circle cx="749.021" cy="459.978" r="7.02088" fill="#8C5C89"/>
<path d="M551.559 295.048C551.75 295.027 552.166 295.015 552.37 295.014C554.742 295.01 557.12 295.015 559.492 295.014L574.051 295.015L581.099 295.012C581.978 295.011 584.062 294.961 584.822 295.072C585.821 295.227 586.748 295.684 587.478 296.381C588.651 297.519 588.995 298.697 588.996 300.286C589 305.379 589 310.476 589 315.569L588.999 320.018C588.999 320.739 589.008 321.471 588.974 322.181C588.89 323.946 587.772 325.513 586.188 326.268C584.902 326.882 583.506 326.759 582.122 326.757L578.756 326.752L563.103 326.749C561.554 328.048 560.029 329.509 558.487 330.827C557.821 331.396 557.195 332.017 556.494 332.54C555.838 333.03 554.798 332.74 554.682 331.873C554.601 331.267 554.637 330.643 554.637 330.029L554.64 326.754C552.863 326.759 551.007 326.981 549.462 325.955C546.794 324.185 547.23 321.41 547.23 318.64L547.23 310.866L547.226 303.492C547.225 302.382 547.236 301.262 547.233 300.153C547.225 297.474 548.894 295.469 551.559 295.048Z" fill="#452044"/>
<path d="M552.751 297.101C554.767 297.019 557.361 297.094 559.421 297.094L572.411 297.094L580.452 297.09C581.76 297.089 583.155 297.065 584.46 297.124C584.958 297.147 585.697 297.482 586.05 297.848C586.814 298.638 586.93 299.247 586.933 300.282C586.943 305.145 586.938 310.013 586.939 314.874L586.939 319.658C586.938 321.251 587.162 324.015 584.861 324.343C583.237 324.574 581.142 324.443 579.456 324.439L568.809 324.438C567.029 324.437 565.231 324.428 563.451 324.445C563.258 324.446 562.748 324.497 562.61 324.59C561.988 325.006 561.293 325.683 560.735 326.187C559.572 327.233 558.413 328.286 557.262 329.345C557.251 328.345 557.29 326.442 557.246 325.46C557.149 323.309 552.316 325.397 550.916 323.78C550.289 323.054 550.029 322.919 549.992 321.77C549.942 320.181 549.972 318.562 549.973 316.979L549.97 308.192L549.968 302.56C549.967 300.195 549.501 297.343 552.751 297.101Z" fill="white"/>
<path d="M575.427 302.591C576.622 302.563 577.826 302.577 579.021 302.57C579.835 302.565 580.227 302.416 580.732 303.166C580.799 303.731 580.773 304.629 580.773 305.232L580.771 308.758C580.77 312.165 580.775 315.573 580.769 318.98C580.768 319.727 580.791 320.046 580.126 320.361C579.331 320.392 575.394 320.526 574.952 320.187C574.822 320.086 574.715 319.868 574.682 319.699C574.559 319.06 574.634 318.265 574.635 317.614L574.642 314L574.641 307.018C574.641 305.875 574.628 304.731 574.641 303.589C574.648 302.97 574.908 302.706 575.427 302.591Z" fill="#452044"/>
<path d="M565.67 308.777C566.163 308.74 566.715 308.75 567.213 308.75C568.411 308.75 569.619 308.719 570.816 308.759C571.417 308.779 571.826 309.038 571.847 309.651C571.869 310.327 571.859 311.012 571.859 311.692L571.86 315.479C571.861 316.813 571.903 318.428 571.81 319.773C571.792 320.04 571.445 320.248 571.22 320.381C570.824 320.404 570.398 320.409 569.991 320.401C568.596 320.373 567.153 320.478 565.769 320.349C565.253 320.301 565.052 319.866 565.043 319.412C565.03 318.761 565.035 318.089 565.035 317.427L565.032 313.684C565.03 312.372 564.979 310.628 565.09 309.308C565.109 309.088 565.479 308.881 565.67 308.777Z" fill="#452044"/>
<path d="M556.23 312.913C557.184 312.875 560.943 312.781 561.651 312.996C561.868 313.062 562.068 313.262 562.158 313.472C562.329 313.872 562.309 319.498 562.148 319.877C562.025 320.169 561.797 320.282 561.521 320.401C560.029 320.433 558.526 320.395 557.033 320.414C556.646 320.419 555.574 320.414 555.525 319.859C555.349 317.89 555.463 315.836 555.454 313.851C555.451 313.309 555.769 313.075 556.23 312.913Z" fill="#452044"/>
<path d="M525.283 337.626C527.828 337.529 530.708 337.642 533.29 337.609C534.912 337.589 538.352 337.532 539.832 337.761C541.006 337.945 542.137 338.335 543.174 338.912C544.71 339.769 546.792 341.641 547.276 343.362C545.853 347.439 545.783 351.358 547.504 355.344C547.756 356.071 548.424 356.72 548.572 357.467C548.595 357.736 548.413 358.047 548.259 358.238C547.563 359.103 545.678 358.842 544.636 358.841L539.568 358.835L524.041 358.832L519.16 358.833C518.302 358.833 517.399 358.851 516.547 358.802C516.137 358.779 515.867 358.714 515.565 358.438C515.147 358.055 515.028 357.615 515.019 357.056C514.995 355.381 515.033 353.659 515.026 351.988C515.008 347.755 514.604 344.383 517.76 340.966C519.792 338.765 522.329 337.752 525.283 337.626Z" fill="#452044"/>
<path d="M562.578 334.845C570.53 334.637 577.147 340.782 577.347 348.565C577.549 356.347 571.258 362.812 563.305 362.997C555.369 363.182 548.78 357.042 548.579 349.277C548.378 341.51 554.642 335.053 562.578 334.845Z" fill="#CCADCB"/>
<path d="M562.401 337.62C569.006 337.134 574.765 341.954 575.262 348.386C575.759 354.817 570.807 360.424 564.203 360.906C557.601 361.389 551.847 356.569 551.349 350.139C550.852 343.711 555.8 338.106 562.401 337.62Z" fill="white"/>
<path d="M562.735 340.339C564.452 340.264 564.35 340.785 564.354 342.225C565.196 342.366 566.006 342.634 566.735 343.092C567.2 343.39 568.314 344.118 567.809 344.733C567.032 345.68 566.654 346.205 565.551 345.258C564.725 344.588 563.859 344.351 562.809 344.466C561.845 344.573 560.869 345.199 561.11 346.233C561.411 347.532 563.708 347.62 564.792 347.979C565.531 348.176 566.182 348.418 566.83 348.817C568.593 349.905 568.938 352.292 567.735 353.902C566.894 355.029 565.749 355.406 564.343 355.643C564.365 356.539 564.534 357.349 563.391 357.504C561.97 357.479 562.12 356.772 562.16 355.647C560.797 355.474 558.907 354.761 558.192 353.498C558.135 353.398 558.18 353.076 558.266 352.977C558.617 352.582 558.985 351.916 559.567 351.819C560.176 351.804 560.57 352.383 561.046 352.736C562.129 353.54 564.483 353.718 565.394 352.604C565.571 352.389 565.764 351.891 565.652 351.598C565.153 350.298 563.16 350.25 561.992 349.876C561.367 349.72 560.868 349.516 560.292 349.234C558.299 348.258 557.729 345.943 558.854 344.138C559.578 342.976 560.793 342.519 562.142 342.211C562.126 341.414 561.954 340.787 562.735 340.339Z" fill="#452044"/>
<path d="M531.269 316.332C536.543 315.856 541.204 319.754 541.682 325.041C542.161 330.327 538.275 335.003 533.002 335.485C527.724 335.968 523.056 332.069 522.577 326.778C522.098 321.487 525.991 316.809 531.269 316.332Z" fill="#452044"/>
</svg>
