<svg width="83" height="24" viewBox="0 0 83 24" fill="none" xmlns="http://www.w3.org/2000/svg">
<g clip-path="url(#clip0_2089_3531)">
<path d="M11.9865 0C5.36717 0 0 5.37321 0 12C0 18.6268 5.36717 24 11.9865 24C14.524 24 16.8757 23.2104 18.813 21.8637L20.9469 24L23.9717 20.9718L21.8378 18.8355C23.183 16.896 23.9717 14.5404 23.9717 12.0013C23.973 5.37321 18.6059 0 11.9865 0ZM11.9865 19.7102C7.73341 19.7102 4.28498 16.2579 4.28498 12C4.28498 7.74211 7.73341 4.2898 11.9865 4.2898C16.2396 4.2898 19.6881 7.74211 19.6881 12C19.6881 16.2579 16.2396 19.7102 11.9865 19.7102Z" fill="black"/>
<path d="M57.3208 0.442627H53.0371V23.5586H57.3208V0.442627Z" fill="black"/>
<path d="M71.4561 0.442627H61.6074V23.5586H71.4561C77.8324 23.5586 83.0004 18.3835 83.0004 12.0013C83.0004 5.6191 77.8324 0.442627 71.4561 0.442627ZM71.5716 19.3167H65.9375L65.8871 4.69919L71.5729 4.68324C75.6096 4.68324 78.7168 7.95874 78.7168 12C78.7168 16.0412 75.6096 19.3167 71.5729 19.3167H71.5716Z" fill="black"/>
<path d="M44.4719 13.3306C44.4719 16.868 41.5945 19.7102 38.0611 19.7102C34.5277 19.7102 31.6489 16.868 31.6489 13.3306V0.442627H27.3652V13.2921C27.3652 19.2063 32.1535 24 38.0611 24C43.9687 24 48.7569 19.2063 48.7569 13.2921V0.442627H44.4719V13.3306Z" fill="black"/>
</g>
<defs>
<clipPath id="clip0_2089_3531">
<rect width="83" height="24" fill="white"/>
</clipPath>
</defs>
</svg>
