<svg width="83" height="83" viewBox="0 0 83 83" fill="none" xmlns="http://www.w3.org/2000/svg">
<rect width="83" height="83" fill="white"/>
<g clip-path="url(#clip0_1249_91)">
<mask id="mask0_1249_91" style="mask-type:luminance" maskUnits="userSpaceOnUse" x="7" y="31" width="69" height="20">
<path d="M76 31H7V51H76V31Z" fill="white"/>
</mask>
<g mask="url(#mask0_1249_91)">
<path d="M16.9647 31C11.4619 31 7 35.4777 7 41C7 46.5223 11.4619 51 16.9647 51C19.0742 51 21.0292 50.342 22.6397 49.2198L24.4137 51L26.9283 48.4765L25.1543 46.6963C26.2726 45.08 26.9283 43.117 26.9283 41.0011C26.9294 35.4777 22.4676 31 16.9647 31ZM16.9647 47.4252C13.429 47.4252 10.5622 44.5482 10.5622 41C10.5622 37.4518 13.429 34.5748 16.9647 34.5748C20.5004 34.5748 23.3672 37.4518 23.3672 41C23.3672 44.5482 20.5004 47.4252 16.9647 47.4252Z" fill="black"/>
<path d="M54.651 31.3672H51.0898V50.6305H54.651V31.3672Z" fill="black"/>
<path d="M66.4023 31.3672H58.2148V50.6305H66.4023C71.7031 50.6305 75.9994 46.3179 75.9994 40.9994C75.9994 35.6809 71.7031 31.3672 66.4023 31.3672ZM66.4983 47.0956H61.8146L61.7727 34.9143L66.4994 34.901C69.8552 34.901 72.4383 37.6306 72.4383 40.9983C72.4383 44.366 69.8552 47.0956 66.4994 47.0956H66.4983Z" fill="black"/>
<path d="M43.9712 42.1072C43.9712 45.055 41.5792 47.4235 38.6418 47.4235C35.7044 47.4235 33.3111 45.055 33.3111 42.1072V31.3672H29.75V42.0751C29.75 47.0036 33.7306 50.9983 38.6418 50.9983C43.5529 50.9983 47.5335 47.0036 47.5335 42.0751V31.3672H43.9712V42.1072Z" fill="black"/>
</g>
</g>
<defs>
<clipPath id="clip0_1249_91">
<rect width="69" height="20" fill="white" transform="translate(7 31)"/>
</clipPath>
</defs>
</svg>
