<svg width="45" height="45" viewBox="0 0 45 45" fill="none" xmlns="http://www.w3.org/2000/svg">
<path d="M23.1889 3C23.6516 3.00003 24.076 3.07561 24.4616 3.22817C24.8473 3.38074 25.1944 3.60985 25.503 3.91502C25.8501 4.22015 26.1395 4.60195 26.3708 5.05969L38.5874 30.2703C34.8198 26.8087 30.3948 23.3749 26.841 21.7358L23.1308 13.9852L19.4222 21.7654C15.7235 23.4625 11.2375 27.0255 7.54144 30.5706L19.9487 5.00226C20.2572 4.39191 20.7011 3.91525 21.2796 3.57196C21.8967 3.19056 22.5332 3 23.1889 3Z" fill="#1E001A"/>
<path d="M15.8854 27.4692C18.2238 26.0654 20.8576 25.064 23.5761 25.1656C26.2058 25.2639 28.7015 26.3865 30.8958 27.8661C33.1008 29.353 35.1123 31.2746 36.7981 33.1407C38.4892 35.0125 39.8876 36.8674 40.862 38.2508C41.3501 38.9438 41.7341 39.5223 41.9977 39.9299C42.1296 40.1337 42.2314 40.2954 42.3013 40.4074C42.3361 40.4633 42.3634 40.5066 42.3821 40.537C42.3914 40.5522 42.3988 40.5641 42.404 40.5726C42.4066 40.5769 42.4087 40.5804 42.4103 40.5829L42.4126 40.5876C42.4111 40.5891 42.3622 40.6194 41.0408 41.4296C39.7321 42.232 39.6708 42.2688 39.6681 42.2707C39.6676 42.2698 39.6664 42.2683 39.665 42.266C39.6618 42.2608 39.6566 42.2517 39.6493 42.2399C39.6348 42.2162 39.6123 42.1795 39.5819 42.1308C39.5209 42.033 39.4282 41.8864 39.3066 41.6984C39.0631 41.3219 38.7028 40.7791 38.2422 40.1252C37.3189 38.8143 36.0017 37.0692 34.4223 35.321C32.8378 33.5672 31.0233 31.8483 29.1098 30.5579C27.1855 29.2603 25.2693 28.4691 23.4569 28.4013C21.5883 28.3315 19.5773 29.0218 17.5294 30.2512C15.4922 31.4742 13.534 33.1615 11.8105 34.9052C10.093 36.6429 8.64651 38.3981 7.62752 39.722C7.11918 40.3824 6.71986 40.9321 6.4494 41.3142C6.31428 41.5051 6.21153 41.6541 6.1435 41.7537C6.10949 41.8035 6.08369 41.841 6.06742 41.8652C6.0594 41.8771 6.05374 41.8859 6.05016 41.8913C6.04837 41.8939 6.04688 41.8958 6.04624 41.8968C6.03894 41.8916 5.94248 41.8273 4.70968 40.9987C3.43849 40.1443 3.37668 40.1023 3.3739 40.0999L3.37469 40.0991C3.37524 40.0982 3.3754 40.0964 3.37625 40.0951C3.37795 40.0926 3.38049 40.0891 3.38331 40.0849C3.38904 40.0763 3.39738 40.0645 3.40763 40.0493C3.42836 40.0184 3.45828 39.974 3.49705 39.9173C3.5746 39.8037 3.68741 39.6399 3.83354 39.4334C4.12568 39.0207 4.55059 38.4358 5.08853 37.7369C6.16229 36.3419 7.69704 34.4786 9.53432 32.6197C11.3657 30.7667 13.5363 28.8795 15.8854 27.4692Z" fill="#66023C"/>
<path d="M8.12908 43.1523C10.9618 43.1523 13.2582 40.838 13.2582 37.9831C13.2582 35.1282 10.9618 32.8139 8.12908 32.8139C5.29637 32.8139 3 35.1282 3 37.9831C3 40.838 5.29637 43.1523 8.12908 43.1523Z" fill="#66023C"/>
<path d="M38.0487 43.1523C40.8814 43.1523 43.1778 40.838 43.1778 37.9831C43.1778 35.1282 40.8814 32.8139 38.0487 32.8139C35.216 32.8139 32.9196 35.1282 32.9196 37.9831C32.9196 40.838 35.216 43.1523 38.0487 43.1523Z" fill="#66023C"/>
</svg>
